<svg width="2192" height="408" viewBox="0 0 2192 408" fill="none" xmlns="http://www.w3.org/2000/svg">
<path d="M49.2369 140.12C53.0769 146.84 57.0769 152.76 61.2369 157.88C65.5569 163 70.3569 167 75.6369 169.88C80.9169 172.76 86.9169 174.2 93.6369 174.2C102.597 174.2 109.797 171.72 115.237 166.76C120.677 161.8 123.397 155.48 123.397 147.8C123.397 140.28 121.637 134.28 118.117 129.8C114.597 125.32 109.957 121.72 104.197 119C98.5969 116.12 92.5969 113.56 86.1969 111.32C82.0369 109.88 77.3969 108.04 72.2769 105.8C67.1569 103.4 62.2769 100.44 57.6369 96.92C52.9969 93.24 49.1569 88.76 46.1169 83.48C43.2369 78.2 41.7969 71.72 41.7969 64.04C41.7969 55.72 43.8769 48.28 48.0369 41.72C52.1969 35.16 57.9569 30.04 65.3169 26.36C72.6769 22.52 81.0769 20.6 90.5169 20.6C99.6369 20.6 107.557 22.36 114.277 25.88C121.157 29.24 126.997 33.64 131.797 39.08C136.597 44.36 140.357 49.96 143.077 55.88L125.557 65.96C123.477 61.8 120.837 57.72 117.637 53.72C114.437 49.72 110.517 46.44 105.877 43.88C101.397 41.32 95.8769 40.04 89.3169 40.04C80.1969 40.04 73.5569 42.28 69.3969 46.76C65.2369 51.08 63.1569 55.96 63.1569 61.4C63.1569 66.04 64.3569 70.36 66.7569 74.36C69.1569 78.2 73.1569 81.88 78.7569 85.4C84.5169 88.76 92.2769 92.12 102.037 95.48C106.517 97.08 111.237 99.16 116.197 101.72C121.157 104.28 125.717 107.56 129.877 111.56C134.197 115.4 137.717 120.12 140.437 125.72C143.157 131.16 144.517 137.72 144.517 145.4C144.517 152.76 143.077 159.4 140.197 165.32C137.477 171.24 133.637 176.28 128.677 180.44C123.877 184.6 118.357 187.8 112.117 190.04C106.037 192.28 99.6369 193.4 92.9169 193.4C83.7969 193.4 75.3169 191.48 67.4769 187.64C59.7969 183.64 52.9969 178.44 47.0769 172.04C41.3169 165.48 36.5969 158.52 32.9169 151.16L49.2369 140.12ZM173.281 135.8C173.281 124.6 175.761 114.68 180.721 106.04C185.841 97.4 192.721 90.6 201.361 85.64C210.001 80.68 219.681 78.2 230.401 78.2C241.281 78.2 250.961 80.68 259.441 85.64C268.081 90.6 274.881 97.4 279.841 106.04C284.961 114.68 287.521 124.6 287.521 135.8C287.521 146.84 284.961 156.76 279.841 165.56C274.881 174.2 268.081 181 259.441 185.96C250.961 190.92 241.281 193.4 230.401 193.4C219.681 193.4 210.001 190.92 201.361 185.96C192.721 181 185.841 174.2 180.721 165.56C175.761 156.76 173.281 146.84 173.281 135.8ZM192.721 135.8C192.721 143.48 194.321 150.28 197.521 156.2C200.881 162.12 205.361 166.84 210.961 170.36C216.721 173.72 223.201 175.4 230.401 175.4C237.601 175.4 244.001 173.72 249.601 170.36C255.361 166.84 259.841 162.12 263.041 156.2C266.401 150.28 268.081 143.48 268.081 135.8C268.081 128.12 266.401 121.32 263.041 115.4C259.841 109.32 255.361 104.6 249.601 101.24C244.001 97.88 237.601 96.2 230.401 96.2C223.201 96.2 216.721 97.88 210.961 101.24C205.361 104.6 200.881 109.32 197.521 115.4C194.321 121.32 192.721 128.12 192.721 135.8ZM342.697 147.8C342.697 156.6 344.697 163.4 348.697 168.2C352.697 173 358.537 175.4 366.217 175.4C371.817 175.4 376.697 174.28 380.857 172.04C385.177 169.64 388.457 166.36 390.697 162.2C393.097 158.04 394.297 153.24 394.297 147.8V80.6H413.497V191H394.297V173.72C390.617 180.28 386.057 185.24 380.617 188.6C375.177 191.8 368.777 193.4 361.417 193.4C349.897 193.4 340.697 189.48 333.817 181.64C326.937 173.8 323.497 163.32 323.497 150.2V80.6H342.697V147.8ZM463.751 157.16C465.991 160.52 468.551 163.64 471.431 166.52C474.311 169.4 477.591 171.72 481.271 173.48C485.111 175.08 489.271 175.88 493.751 175.88C499.191 175.88 503.431 174.68 506.471 172.28C509.671 169.72 511.271 166.28 511.271 161.96C511.271 158.12 509.991 154.92 507.431 152.36C505.031 149.64 501.911 147.4 498.071 145.64C494.231 143.72 490.151 141.96 485.831 140.36C481.031 138.44 476.151 136.2 471.191 133.64C466.391 130.92 462.311 127.48 458.951 123.32C455.751 119 454.151 113.64 454.151 107.24C454.151 100.68 455.831 95.24 459.191 90.92C462.711 86.6 467.191 83.4 472.631 81.32C478.231 79.24 483.991 78.2 489.911 78.2C495.831 78.2 501.351 79.16 506.471 81.08C511.751 83 516.391 85.56 520.391 88.76C524.391 91.96 527.511 95.64 529.751 99.8L514.391 109.64C511.351 105.48 507.511 102.04 502.871 99.32C498.391 96.6 493.271 95.24 487.511 95.24C483.511 95.24 480.071 96.12 477.191 97.88C474.311 99.64 472.871 102.36 472.871 106.04C472.871 108.92 473.991 111.48 476.231 113.72C478.471 115.96 481.351 117.96 484.871 119.72C488.391 121.48 492.071 123.16 495.911 124.76C502.311 127.32 508.151 130.12 513.431 133.16C518.711 136.04 522.871 139.56 525.911 143.72C529.111 147.88 530.711 153.24 530.711 159.8C530.711 169.4 527.191 177.4 520.151 183.8C513.271 190.2 504.151 193.4 492.791 193.4C485.431 193.4 478.791 192.12 472.871 189.56C466.951 186.84 461.911 183.4 457.751 179.24C453.751 175.08 450.711 170.84 448.631 166.52L463.751 157.16ZM548.788 143V125H596.788V143H548.788ZM609.978 42.2V23H716.778V42.2H673.578V191H653.178V42.2H609.978ZM746.741 35C746.741 31.32 748.021 28.2 750.581 25.64C753.301 23.08 756.421 21.8 759.941 21.8C763.621 21.8 766.741 23.08 769.301 25.64C771.861 28.2 773.141 31.32 773.141 35C773.141 38.52 771.861 41.64 769.301 44.36C766.741 46.92 763.621 48.2 759.941 48.2C756.421 48.2 753.301 46.92 750.581 44.36C748.021 41.64 746.741 38.52 746.741 35ZM750.341 80.6H769.541V191H750.341V80.6ZM801.884 80.6H857.084V98.6H801.884V80.6ZM819.884 42.2H839.084V191H819.884V42.2ZM905.141 80.6V191H885.941V80.6H905.141ZM938.501 101.72C935.941 99.8 933.621 98.44 931.541 97.64C929.461 96.68 926.821 96.2 923.621 96.2C918.821 96.2 915.061 97.4 912.341 99.8C909.621 102.2 907.701 105.48 906.581 109.64C905.621 113.8 905.141 118.52 905.141 123.8H896.501C896.501 115 898.021 107.24 901.061 100.52C904.261 93.64 908.341 88.2 913.301 84.2C918.261 80.2 923.301 78.2 928.421 78.2C932.421 78.2 936.101 78.76 939.461 79.88C942.981 80.84 946.181 82.84 949.061 85.88L938.501 101.72ZM1017.01 193.4C1006.77 193.4 997.651 191 989.651 186.2C981.811 181.24 975.651 174.44 971.171 165.8C966.851 157.16 964.691 147.16 964.691 135.8C964.691 124.28 966.931 114.2 971.411 105.56C976.051 96.92 982.451 90.2 990.611 85.4C998.931 80.6 1008.53 78.2 1019.41 78.2C1030.29 78.2 1039.57 80.52 1047.25 85.16C1055.09 89.64 1061.09 96.12 1065.25 104.6C1069.41 113.08 1071.49 123.16 1071.49 134.84C1071.49 135.96 1071.41 137.16 1071.25 138.44C1071.25 139.56 1071.25 140.28 1071.25 140.6H976.931V124.28H1056.13L1048.45 135.32C1048.93 134.52 1049.41 133.32 1049.89 131.72C1050.37 129.96 1050.61 128.52 1050.61 127.4C1050.61 120.84 1049.25 115.16 1046.53 110.36C1043.97 105.56 1040.37 101.8 1035.73 99.08C1031.09 96.36 1025.65 95 1019.41 95C1012.05 95 1005.73 96.6 1000.45 99.8C995.331 102.84 991.331 107.32 988.451 113.24C985.731 119 984.291 126.12 984.131 134.6C984.131 143.24 985.491 150.6 988.211 156.68C990.931 162.76 994.931 167.4 1000.21 170.6C1005.49 173.8 1011.89 175.4 1019.41 175.4C1026.93 175.4 1033.57 173.8 1039.33 170.6C1045.09 167.24 1049.97 162.2 1053.97 155.48L1069.57 165.32C1063.81 174.6 1056.53 181.64 1047.73 186.44C1039.09 191.08 1028.85 193.4 1017.01 193.4ZM1111.97 157.16C1114.21 160.52 1116.77 163.64 1119.65 166.52C1122.53 169.4 1125.81 171.72 1129.49 173.48C1133.33 175.08 1137.49 175.88 1141.97 175.88C1147.41 175.88 1151.65 174.68 1154.69 172.28C1157.89 169.72 1159.49 166.28 1159.49 161.96C1159.49 158.12 1158.21 154.92 1155.65 152.36C1153.25 149.64 1150.13 147.4 1146.29 145.64C1142.45 143.72 1138.37 141.96 1134.05 140.36C1129.25 138.44 1124.37 136.2 1119.41 133.64C1114.61 130.92 1110.53 127.48 1107.17 123.32C1103.97 119 1102.37 113.64 1102.37 107.24C1102.37 100.68 1104.05 95.24 1107.41 90.92C1110.93 86.6 1115.41 83.4 1120.85 81.32C1126.45 79.24 1132.21 78.2 1138.13 78.2C1144.05 78.2 1149.57 79.16 1154.69 81.08C1159.97 83 1164.61 85.56 1168.61 88.76C1172.61 91.96 1175.73 95.64 1177.97 99.8L1162.61 109.64C1159.57 105.48 1155.73 102.04 1151.09 99.32C1146.61 96.6 1141.49 95.24 1135.73 95.24C1131.73 95.24 1128.29 96.12 1125.41 97.88C1122.53 99.64 1121.09 102.36 1121.09 106.04C1121.09 108.92 1122.21 111.48 1124.45 113.72C1126.69 115.96 1129.57 117.96 1133.09 119.72C1136.61 121.48 1140.29 123.16 1144.13 124.76C1150.53 127.32 1156.37 130.12 1161.65 133.16C1166.93 136.04 1171.09 139.56 1174.13 143.72C1177.33 147.88 1178.93 153.24 1178.93 159.8C1178.93 169.4 1175.41 177.4 1168.37 183.8C1161.49 190.2 1152.37 193.4 1141.01 193.4C1133.65 193.4 1127.01 192.12 1121.09 189.56C1115.17 186.84 1110.13 183.4 1105.97 179.24C1101.97 175.08 1098.93 170.84 1096.85 166.52L1111.97 157.16Z" fill="white"/>
<path d="M44.4781 243.2V224H151.278V243.2H108.078V392H87.6781V243.2H44.4781ZM183.622 281.6V392H164.422V281.6H183.622ZM216.982 302.72C214.422 300.8 212.102 299.44 210.022 298.64C207.942 297.68 205.302 297.2 202.102 297.2C197.302 297.2 193.542 298.4 190.822 300.8C188.102 303.2 186.182 306.48 185.062 310.64C184.102 314.8 183.622 319.52 183.622 324.8H174.982C174.982 316 176.502 308.24 179.542 301.52C182.742 294.64 186.822 289.2 191.782 285.2C196.742 281.2 201.782 279.2 206.902 279.2C210.902 279.2 214.582 279.76 217.942 280.88C221.462 281.84 224.662 283.84 227.542 286.88L216.982 302.72ZM267.328 357.92C267.328 362.08 268.288 365.68 270.208 368.72C272.288 371.76 275.088 374.08 278.608 375.68C282.288 377.12 286.448 377.84 291.088 377.84C297.008 377.84 302.288 376.64 306.928 374.24C311.728 371.84 315.488 368.48 318.208 364.16C321.088 359.68 322.528 354.56 322.528 348.8L326.368 363.2C326.368 370.24 324.208 376.08 319.888 380.72C315.728 385.36 310.528 388.8 304.288 391.04C298.208 393.28 292.128 394.4 286.048 394.4C279.328 394.4 273.008 393.04 267.088 390.32C261.328 387.44 256.688 383.36 253.168 378.08C249.648 372.8 247.888 366.4 247.888 358.88C247.888 348.16 251.648 339.6 259.168 333.2C266.848 326.64 277.488 323.36 291.088 323.36C299.088 323.36 305.728 324.32 311.008 326.24C316.448 328 320.768 330.08 323.968 332.48C327.168 334.72 329.328 336.56 330.448 338V349.28C324.848 345.44 319.088 342.72 313.168 341.12C307.248 339.36 300.928 338.48 294.208 338.48C287.968 338.48 282.848 339.28 278.848 340.88C275.008 342.48 272.128 344.72 270.208 347.6C268.288 350.48 267.328 353.92 267.328 357.92ZM264.448 307.04L255.088 292.88C259.248 289.84 264.928 286.8 272.128 283.76C279.488 280.72 288.288 279.2 298.528 279.2C307.168 279.2 314.688 280.56 321.088 283.28C327.648 285.84 332.688 289.6 336.208 294.56C339.888 299.52 341.728 305.6 341.728 312.8V392H322.528V315.44C322.528 311.6 321.888 308.48 320.608 306.08C319.328 303.52 317.488 301.52 315.088 300.08C312.848 298.64 310.208 297.6 307.168 296.96C304.128 296.32 300.928 296 297.568 296C292.128 296 287.168 296.64 282.688 297.92C278.368 299.2 274.688 300.72 271.648 302.48C268.608 304.24 266.208 305.76 264.448 307.04ZM469.034 204.8H488.234V392H469.034V204.8ZM376.634 336.8C376.634 324.8 379.114 314.56 384.074 306.08C389.034 297.44 395.674 290.8 403.994 286.16C412.314 281.52 421.434 279.2 431.354 279.2C440.634 279.2 448.714 281.52 455.594 286.16C462.474 290.8 467.834 297.44 471.674 306.08C475.674 314.56 477.674 324.8 477.674 336.8C477.674 348.64 475.674 358.88 471.674 367.52C467.834 376.16 462.474 382.8 455.594 387.44C448.714 392.08 440.634 394.4 431.354 394.4C421.434 394.4 412.314 392.08 403.994 387.44C395.674 382.8 389.034 376.16 384.074 367.52C379.114 358.88 376.634 348.64 376.634 336.8ZM396.074 336.8C396.074 345.28 397.754 352.48 401.114 358.4C404.634 364.32 409.274 368.8 415.034 371.84C420.794 374.88 427.034 376.4 433.754 376.4C439.354 376.4 444.874 374.88 450.314 371.84C455.754 368.8 460.234 364.32 463.754 358.4C467.274 352.48 469.034 345.28 469.034 336.8C469.034 328.32 467.274 321.12 463.754 315.2C460.234 309.28 455.754 304.8 450.314 301.76C444.874 298.72 439.354 297.2 433.754 297.2C427.034 297.2 420.794 298.72 415.034 301.76C409.274 304.8 404.634 309.28 401.114 315.2C397.754 321.12 396.074 328.32 396.074 336.8ZM554.309 348.8C554.309 357.6 556.309 364.4 560.309 369.2C564.309 374 570.149 376.4 577.829 376.4C583.429 376.4 588.309 375.28 592.469 373.04C596.789 370.64 600.069 367.36 602.309 363.2C604.709 359.04 605.909 354.24 605.909 348.8V281.6H625.109V392H605.909V374.72C602.229 381.28 597.669 386.24 592.229 389.6C586.789 392.8 580.389 394.4 573.029 394.4C561.509 394.4 552.309 390.48 545.429 382.64C538.549 374.8 535.109 364.32 535.109 351.2V281.6H554.309V348.8ZM681.843 336.8C681.843 344.48 683.443 351.28 686.643 357.2C690.003 363.12 694.483 367.84 700.083 371.36C705.843 374.72 712.323 376.4 719.523 376.4C725.443 376.4 730.963 375.52 736.083 373.76C741.363 371.84 745.923 369.36 749.763 366.32C753.603 363.12 756.323 359.76 757.923 356.24V380.24C754.083 384.72 748.563 388.24 741.363 390.8C734.323 393.2 727.043 394.4 719.523 394.4C708.803 394.4 699.123 391.92 690.483 386.96C681.843 382 674.963 375.2 669.843 366.56C664.883 357.76 662.403 347.84 662.403 336.8C662.403 325.6 664.883 315.68 669.843 307.04C674.963 298.4 681.843 291.6 690.483 286.64C699.123 281.68 708.803 279.2 719.523 279.2C727.043 279.2 734.323 280.48 741.363 283.04C748.563 285.44 754.083 288.88 757.923 293.36V317.36C756.323 313.68 753.603 310.32 749.763 307.28C745.923 304.24 741.363 301.84 736.083 300.08C730.963 298.16 725.443 297.2 719.523 297.2C712.323 297.2 705.843 298.88 700.083 302.24C694.483 305.6 690.003 310.32 686.643 316.4C683.443 322.32 681.843 329.12 681.843 336.8ZM783.013 281.6H838.213V299.6H783.013V281.6ZM801.013 243.2H820.213V392H801.013V243.2ZM869.469 236C869.469 232.32 870.749 229.2 873.309 226.64C876.029 224.08 879.149 222.8 882.669 222.8C886.349 222.8 889.469 224.08 892.029 226.64C894.589 229.2 895.869 232.32 895.869 236C895.869 239.52 894.589 242.64 892.029 245.36C889.469 247.92 886.349 249.2 882.669 249.2C879.149 249.2 876.029 247.92 873.309 245.36C870.749 242.64 869.469 239.52 869.469 236ZM873.069 281.6H892.269V392H873.069V281.6ZM934.213 336.8C934.213 325.6 936.692 315.68 941.652 307.04C946.773 298.4 953.653 291.6 962.293 286.64C970.933 281.68 980.613 279.2 991.333 279.2C1002.21 279.2 1011.89 281.68 1020.37 286.64C1029.01 291.6 1035.81 298.4 1040.77 307.04C1045.89 315.68 1048.45 325.6 1048.45 336.8C1048.45 347.84 1045.89 357.76 1040.77 366.56C1035.81 375.2 1029.01 382 1020.37 386.96C1011.89 391.92 1002.21 394.4 991.333 394.4C980.613 394.4 970.933 391.92 962.293 386.96C953.653 382 946.773 375.2 941.652 366.56C936.692 357.76 934.213 347.84 934.213 336.8ZM953.653 336.8C953.653 344.48 955.253 351.28 958.453 357.2C961.813 363.12 966.293 367.84 971.893 371.36C977.653 374.72 984.133 376.4 991.333 376.4C998.533 376.4 1004.93 374.72 1010.53 371.36C1016.29 367.84 1020.77 363.12 1023.97 357.2C1027.33 351.28 1029.01 344.48 1029.01 336.8C1029.01 329.12 1027.33 322.32 1023.97 316.4C1020.77 310.32 1016.29 305.6 1010.53 302.24C1004.93 298.88 998.533 297.2 991.333 297.2C984.133 297.2 977.653 298.88 971.893 302.24C966.293 305.6 961.813 310.32 958.453 316.4C955.253 322.32 953.653 329.12 953.653 336.8ZM1157.63 324.8C1157.63 315.68 1155.63 308.8 1151.63 304.16C1147.63 299.52 1141.79 297.2 1134.11 297.2C1128.51 297.2 1123.55 298.4 1119.23 300.8C1115.07 303.04 1111.79 306.24 1109.39 310.4C1107.15 314.56 1106.03 319.36 1106.03 324.8V392H1086.83V281.6H1106.03V298.88C1109.71 292.16 1114.27 287.2 1119.71 284C1125.31 280.8 1131.71 279.2 1138.91 279.2C1150.59 279.2 1159.79 283.12 1166.51 290.96C1173.39 298.64 1176.83 309.12 1176.83 322.4V392H1157.63V324.8Z" fill="#71A8D3"/>
<path d="M1649 296C1649 293.238 1651.24 291 1654 291H1763.19C1767.75 291 1769.93 296.592 1766.58 299.677L1657.39 400.272C1654.18 403.224 1649 400.951 1649 396.595L1649 296Z" fill="white"/>
<path d="M2142 0C2164.09 0 2182 17.9086 2182 40V271C2182 293.091 2164.09 311 2142 311H1499C1476.91 311 1459 293.091 1459 271V40C1459 17.9086 1476.91 1.67105e-07 1499 0H2142ZM1780.69 72C1777.56 72 1775.19 74.4375 1775.19 77.5V233.312C1775.19 236.375 1777.56 238.812 1780.69 238.812C1783.88 238.812 1786.25 236.375 1786.25 233.312V77.5C1786.25 74.4375 1783.88 72 1780.69 72ZM1933.1 74C1916 74 1905 84.2405 1905 101.949V146.589C1905 164.354 1916 174.482 1933.1 174.482H1936.83V192.021C1936.83 196.717 1939.25 199.716 1943.48 199.716C1946.47 199.716 1948.56 198.074 1952.17 194.906L1976.04 174.482H1999.91V183.874C1999.91 201.583 2010.29 211.71 2028.07 211.71H2057.01L2080.83 232.135C2084.44 235.246 2086.53 236.944 2089.52 236.944C2093.75 236.944 2096.17 233.889 2096.17 229.193V211.71H2099.9C2117 211.71 2128 201.526 2128 183.817V139.178C2128 121.412 2117 111.229 2099.9 111.229H2033.09V101.949C2033.09 84.2406 2022.09 74.0002 2004.99 74H1933.1ZM1601.38 74C1556.44 74 1520 110.5 1520 155.438C1520 200.375 1556.44 236.812 1601.38 236.812C1646.31 236.812 1682.81 200.375 1682.81 155.438C1682.81 110.5 1646.31 74 1601.38 74ZM1568.36 200.511C1572.14 210.945 1577.22 219.313 1583.11 224.968C1571.45 221.912 1560.94 216 1552.38 208.024C1556.79 204.958 1562.14 202.433 1568.36 200.511ZM1634.41 200.499C1640.64 202.422 1646.01 204.949 1650.42 208.02C1641.86 215.997 1631.34 221.91 1619.67 224.967C1625.56 219.31 1630.63 210.938 1634.41 200.499ZM1596.81 223.901C1589.27 221.094 1582.39 211.522 1577.56 198.225C1583.43 197.09 1589.87 196.403 1596.81 196.194V223.901ZM1606 196.196C1612.93 196.407 1619.35 197.091 1625.21 198.22C1620.4 211.491 1613.55 221.053 1606 223.883V196.196ZM1833.94 90.8125C1830.75 90.8125 1828.44 93.375 1828.44 96.4375V214.375C1828.44 217.438 1830.75 219.938 1833.94 219.938C1837.06 219.938 1839.5 217.438 1839.5 214.375V96.4375C1839.5 93.375 1837.06 90.8125 1833.94 90.8125ZM1754.06 104.438C1750.94 104.438 1748.62 106.938 1748.62 110V200.812C1748.62 203.875 1750.94 206.312 1754.06 206.312C1757.25 206.312 1759.69 203.875 1759.69 200.812V110C1759.69 106.938 1757.25 104.438 1754.06 104.438ZM1561.25 160C1561.56 171.724 1563.13 182.512 1565.68 192C1557.92 194.432 1551.26 197.656 1546.19 201.484C1536.68 190.103 1530.63 175.738 1529.64 160H1561.25ZM1673.17 160C1672.18 175.737 1666.13 190.101 1656.62 201.481C1651.54 197.647 1644.87 194.42 1637.08 191.987C1639.62 182.503 1641.19 171.718 1641.5 160H1673.17ZM1807.31 113.562C1804.12 113.562 1801.81 116.062 1801.81 119.125V191.688C1801.81 194.75 1804.13 197.188 1807.31 197.188C1810.5 197.188 1812.87 194.75 1812.88 191.688V119.125C1812.88 116.062 1810.5 113.562 1807.31 113.562ZM2087.99 145.175C2090.53 145.175 2092.45 146.985 2092.45 149.361C2092.45 151.851 2090.53 153.661 2087.99 153.661H2082.12C2080.21 161.073 2076.54 167.806 2071.23 173.464C2076.48 177.085 2082.13 179.461 2088.9 181.045C2091.6 181.611 2092.85 183.817 2092.17 186.421C2091.49 189.192 2088.78 190.097 2085.57 189.362C2078.34 187.608 2071.18 184.327 2064.86 179.461C2058.31 184.384 2051.15 187.665 2043.47 189.419C2040.59 190.154 2037.94 189.079 2037.26 186.421C2036.76 183.988 2038.17 181.611 2040.65 181.045C2047.48 179.405 2053.23 177.028 2058.37 173.464C2053.01 167.693 2049.34 160.903 2047.42 153.661H2041.55C2039.01 153.661 2037.09 151.851 2037.09 149.361C2037.09 146.985 2039.02 145.175 2041.55 145.175H2087.99ZM1596.81 187.012C1589.07 187.266 1581.67 188.163 1574.87 189.607C1572.48 180.659 1570.97 170.561 1570.63 160H1596.81V187.012ZM1632.12 160C1631.79 170.559 1630.28 180.655 1627.9 189.602C1621.11 188.164 1613.73 187.269 1606 187.014V160H1632.12ZM2004.26 83.3916C2016.22 83.3916 2023.16 89.8987 2023.16 102.402V111.507C2008.4 113.252 1999.91 123.117 1999.91 139.178V165.147H1976.44C1972.99 165.147 1971.41 165.882 1968.82 168.146L1946.19 188.4V170.183C1946.19 166.732 1944.05 165.147 1941.4 165.147H1933.83C1921.87 165.147 1914.99 158.697 1914.99 146.137V102.402C1914.99 89.8988 1921.87 83.3917 1933.83 83.3916H2004.26ZM1860.56 128.812C1857.37 128.813 1855 131.375 1855 134.438V176.375C1855 179.438 1857.37 181.938 1860.56 181.938C1863.69 181.938 1866.06 179.438 1866.06 176.375V134.438C1866.06 131.375 1863.69 128.812 1860.56 128.812ZM1727.5 136.188C1724.31 136.188 1722 138.688 1722 141.812V169C1722 172.125 1724.31 174.562 1727.5 174.562C1730.69 174.562 1733.06 172.125 1733.06 169V141.812C1733.06 138.688 1730.69 136.188 1727.5 136.188ZM2056.22 153.661C2057.97 158.979 2060.91 163.902 2064.86 168.146C2068.75 163.846 2071.63 158.923 2073.32 153.661H2056.22ZM1969.1 92.6143C1965.94 92.6144 1963.68 94.2548 1962.55 97.3096L1944.22 146.532C1942.97 149.983 1944.84 153.209 1948.5 153.209C1950.87 153.209 1952.34 151.907 1953.24 149.305L1958.1 135.613H1980.16L1985.01 149.305C1985.92 151.907 1987.38 153.209 1989.75 153.209C1993.48 153.209 1995.23 149.927 1994.04 146.532L1975.65 97.3096C1974.52 94.2546 1972.26 92.6143 1969.1 92.6143ZM1545.97 109.599C1551.06 113.493 1557.78 116.769 1565.64 119.234C1563.14 128.611 1561.6 139.253 1561.26 150.812H1529.65C1530.64 135.193 1536.6 120.933 1545.97 109.599ZM1574.74 121.614C1581.58 123.075 1589.02 123.982 1596.81 124.237V150.812H1570.64C1570.99 140.313 1572.45 130.389 1574.74 121.614ZM1628.02 121.621C1630.31 130.394 1631.76 140.315 1632.11 150.812H1606V124.235C1613.78 123.978 1621.2 123.074 1628.02 121.621ZM1656.83 109.602C1666.21 120.935 1672.18 135.195 1673.17 150.812H1641.49C1641.15 139.258 1639.61 128.621 1637.13 119.247C1645.01 116.781 1651.74 113.501 1656.83 109.602ZM2058.03 126.447C2060.34 125.259 2062.83 126.278 2063.95 128.654L2067.79 136.575C2068.92 138.782 2068.02 141.328 2065.65 142.516C2063.45 143.534 2060.85 142.628 2059.84 140.365L2056.05 132.389C2054.93 130.069 2055.83 127.522 2058.03 126.447ZM1977.45 127.692H1960.69L1969.04 103.956L1977.45 127.692ZM1596.81 115.055C1589.8 114.844 1583.3 114.144 1577.39 112.989C1582.22 99.4563 1589.18 89.8632 1596.81 87.0801V115.055ZM1606 87.0977C1613.64 89.9037 1620.57 99.4871 1625.38 112.994C1619.48 114.143 1613 114.84 1606 115.053V87.0977ZM1619.41 85.7754C1631.31 88.8434 1642.01 94.8789 1650.68 103.045C1646.24 106.187 1640.81 108.769 1634.48 110.728C1630.64 100.02 1625.45 91.473 1619.41 85.7754ZM1583.37 85.7744C1577.33 91.4702 1572.13 100.013 1568.29 110.717C1561.98 108.759 1556.56 106.179 1552.12 103.041C1560.79 94.8762 1571.49 88.8418 1583.37 85.7744Z" fill="white"/>
<path d="M1306.29 373C1276.29 373 1254.62 366.833 1241.29 354.5C1227.96 341.833 1221.29 321.667 1221.29 294V231C1221.29 202 1232.12 181.5 1253.79 169.5C1235.46 156.5 1226.29 137.167 1226.29 111.5V101C1226.29 74 1233.46 54.3333 1247.79 42C1262.46 29.3333 1283.96 23 1312.29 23H1365.29V60.5H1306.29C1293.62 60.5 1284.29 63.3333 1278.29 69C1272.62 74.6667 1269.79 83.8333 1269.79 96.5V116.5C1269.79 127.5 1273.29 136.333 1280.29 143C1287.29 149.667 1295.96 153 1306.29 153H1427.79V190.5H1388.29V373H1306.29ZM1301.29 190.5C1290.29 190.5 1281.46 193.833 1274.79 200.5C1268.12 206.833 1264.79 215.5 1264.79 226.5V299C1264.79 311.667 1267.79 321 1273.79 327C1279.79 332.667 1289.12 335.5 1301.79 335.5H1347.79V190.5H1301.29Z" fill="#D1E8F3"/>
</svg>
