<svg width="701" height="152" viewBox="0 0 701 152" fill="none" xmlns="http://www.w3.org/2000/svg">
<path d="M37.8123 104C37.3994 104 36.9816 103.951 36.5687 103.858C33.5959 103.165 31.7208 100.198 32.396 97.197L32.6729 95.9672C33.7319 91.2432 34.6354 87.1828 37.856 82.2441C38.2883 81.5804 38.7304 80.9362 39.1919 80.2725C41.7664 76.4854 43.3306 74.0258 42.7962 71.41C42.5193 70.0582 41.6304 68.8577 40.5277 68.3648C39.5756 67.9305 38.5312 68.072 37.3362 68.7796C34.6985 70.3169 31.3079 69.4384 29.7583 66.7787C28.2136 64.1337 29.1026 60.7322 31.7548 59.1754C36.0635 56.6523 40.7852 56.3156 45.0356 58.2091C49.422 60.1612 52.6281 64.2557 53.653 69.1505C55.1735 76.5196 51.3845 82.0586 48.3485 86.5191L47.1341 88.3199C45.021 91.5653 44.4381 94.1371 43.486 98.3975L43.2091 99.6615C42.6116 102.243 40.3431 104 37.8123 104Z" fill="white" fill-opacity="0.9"/>
<mask id="mask0_1160_14" style="mask-type:luminance" maskUnits="userSpaceOnUse" x="7" y="36" width="67" height="106">
<path fill-rule="evenodd" clip-rule="evenodd" d="M7 36H74V142H7V36Z" fill="white"/>
</mask>
<g mask="url(#mask0_1160_14)">
<path d="M32.1594 141.722C32.0091 141.722 31.854 141.722 31.6844 141.722C21.0073 141.536 12.419 134.988 9.28322 124.669C8.39629 121.727 10.049 118.615 12.957 117.721C15.9086 116.841 18.9717 118.488 19.8586 121.42C21.5695 127.053 26.0526 130.493 31.8831 130.601C31.9752 130.601 32.0528 130.601 32.1303 130.601C37.3017 130.601 43.4521 127.674 45.7154 121.048C46.835 117.799 47.2615 114.364 47.7365 110.743C48.4393 105.227 49.2341 98.9727 52.7382 92.9188C53.7027 91.2526 54.6817 89.6988 55.6317 88.1743C58.9855 82.8289 61.6318 78.5926 61.7966 72.524C62.1213 61.6133 58.404 53.9762 51.0419 50.3996C43.1176 46.5493 31.791 48.1813 24.7101 54.1912C20.8667 57.4552 16.8294 63.2159 19.3836 72.138C20.2269 75.0941 18.5403 78.1773 15.6032 79.0226C12.6662 79.8679 9.62249 78.1773 8.76463 75.2163C5.53677 63.9586 8.75009 53.1896 17.5758 45.6844C27.9525 36.8747 44.0337 34.6418 55.8304 40.3732C62.4412 43.5736 73.4431 52.0804 72.8324 72.8465C72.5707 81.9494 68.6982 88.1255 64.9663 94.0866C64.0794 95.5036 63.1585 96.9547 62.2716 98.4939C59.9016 102.608 59.3345 107.03 58.6754 112.16C58.1713 116.182 57.6382 120.34 56.1503 124.669C52.6655 134.93 43.0546 141.722 32.1594 141.722Z" fill="#F5F5F5"/>
</g>
<path d="M100.853 105C100.156 105 99.4475 104.876 98.7496 104.624C95.7375 103.499 94.2289 100.235 95.3937 97.333L95.6862 96.6149C96.851 93.7075 100.253 92.2564 103.25 93.3807C106.267 94.5049 107.771 97.7689 106.606 100.676L106.313 101.394C105.42 103.623 103.204 105 100.853 105Z" fill="#F5F5F5" fill-opacity="0.62"/>
<mask id="mask1_1160_14" style="mask-type:luminance" maskUnits="userSpaceOnUse" x="14" y="0" width="97" height="93">
<path fill-rule="evenodd" clip-rule="evenodd" d="M14 0H111V93H14V0Z" fill="white"/>
</mask>
<g mask="url(#mask1_1160_14)">
<path d="M103.818 92.1979C103.434 92.1979 103.05 92.149 102.652 92.0707C99.6636 91.4249 97.7587 88.4652 98.3904 85.4712C100.737 74.41 100.383 63.0749 97.3457 52.679C92.3893 35.713 80.6542 22.6314 64.3175 15.8606C51.3531 10.4792 36.3818 9.97044 22.222 14.4419C19.2918 15.3665 16.1917 13.7178 15.2878 10.7874C14.3646 7.85702 15.9924 4.72604 18.9225 3.80142C35.5508 -1.44298 53.1947 -0.826566 68.5645 5.55771C76.639 8.90423 83.7713 13.5417 89.7777 19.2673C98.2768 27.3689 104.522 37.6492 107.992 49.5334C111.554 61.7051 111.982 74.9188 109.236 87.7852C108.668 90.4074 106.364 92.1979 103.818 92.1979Z" fill="white" fill-opacity="0.3"/>
</g>
<mask id="mask2_1160_14" style="mask-type:luminance" maskUnits="userSpaceOnUse" x="0" y="8" width="14" height="14">
<path fill-rule="evenodd" clip-rule="evenodd" d="M0 8H14V22H0V8Z" fill="white"/>
</mask>
<g mask="url(#mask2_1160_14)">
<path d="M5.52984 21.8311C3.6428 21.8311 1.80427 20.8418 0.78071 19.0719C-0.781314 16.3922 0.0773132 12.9121 2.69686 11.3112L3.6428 10.6997C4.18126 10.3567 4.28799 10.2622 5.91307 9.4618C8.66844 8.1145 11.9768 9.2878 13.2915 12.1117C14.6255 14.9306 13.4612 18.3013 10.7059 19.6685C10.182 19.9171 9.93941 20.0413 9.76962 20.1358C9.4155 20.3695 9.06623 20.6081 8.34342 21.0456C7.4751 21.5776 6.49034 21.8311 5.52984 21.8311Z" fill="#E0E0E0" fill-opacity="0.898"/>
</g>
<path d="M82.1766 98C81.4869 98 80.788 97.8507 80.1119 97.5567C77.4935 96.3809 76.2864 93.2595 77.4345 90.5672C77.9791 89.2748 78.4782 87.9497 78.923 86.6106C79.8396 83.8344 82.7756 82.3319 85.4848 83.2885C88.1939 84.231 89.6415 87.2451 88.7248 90.026C88.1939 91.6451 87.5903 93.2455 86.9187 94.8225C86.0747 96.8055 84.1688 98 82.1766 98Z" fill="white" fill-opacity="0.8"/>
<path d="M87.358 79C87.2512 79 87.1445 79 87.0523 78.9854C84.0049 78.8148 81.6612 76.2022 81.8311 73.1314C82.8695 54.5947 73.9701 39.5967 58.0396 33.0068C48.8588 29.2097 37.6788 29.1025 27.3383 32.6997C24.4269 33.6989 21.3019 32.1587 20.3071 29.2731C19.3075 26.3827 20.8264 23.2144 23.7233 22.2152C36.5919 17.7456 50.6397 17.9454 62.2661 22.7563C82.4425 31.1009 94.1902 50.632 92.9043 73.7456C92.7053 76.7091 90.2694 79 87.358 79Z" fill="white" fill-opacity="0.5"/>
<path d="M41 114.997C41 115.392 40.9646 115.782 40.8888 116.167C40.8079 116.556 40.6967 116.931 40.5451 117.295C40.3934 117.66 40.2115 118.004 39.989 118.333C39.7717 118.657 39.524 118.96 39.246 119.239C38.968 119.517 38.6647 119.77 38.3361 119.988C38.0076 120.205 37.6639 120.393 37.2999 120.539C36.936 120.691 36.5569 120.808 36.1727 120.884C35.7885 120.96 35.3943 121 35 121C34.6057 121 34.2165 120.96 33.8324 120.884C33.4431 120.808 33.0691 120.691 32.7051 120.539C32.3412 120.393 31.9975 120.205 31.6689 119.988C31.3404 119.77 31.0371 119.517 30.7591 119.239C30.481 118.96 30.2334 118.657 30.011 118.333C29.7936 118.004 29.6116 117.66 29.46 117.295C29.3083 116.931 29.1921 116.556 29.1163 116.167C29.0404 115.782 29 115.392 29 114.997C29 114.603 29.0404 114.213 29.1163 113.828C29.1921 113.444 29.3083 113.064 29.46 112.705C29.6116 112.34 29.7936 111.991 30.011 111.667C30.2334 111.338 30.481 111.035 30.7591 110.756C31.0371 110.478 31.3404 110.23 31.6689 110.012C31.9975 109.79 32.3412 109.607 32.7051 109.456C33.0691 109.304 33.4431 109.192 33.8324 109.116C34.2165 109.035 34.6057 109 35 109C35.3943 109 35.7885 109.035 36.1727 109.116C36.5569 109.192 36.936 109.304 37.2999 109.456C37.6639 109.607 38.0076 109.79 38.3361 110.012C38.6647 110.23 38.968 110.478 39.246 110.756C39.524 111.035 39.7717 111.338 39.989 111.667C40.2115 111.991 40.3934 112.34 40.5451 112.705C40.6967 113.064 40.8079 113.444 40.8888 113.828C40.9646 114.213 41 114.603 41 114.997Z" fill="white"/>
<path d="M50 149.501C50 149.583 49.9729 149.664 49.9186 149.744C49.8644 149.826 49.783 149.908 49.6727 149.988C49.5642 150.068 49.4303 150.148 49.2676 150.226C49.1066 150.304 48.9186 150.381 48.707 150.457C48.4936 150.533 48.2549 150.606 47.9927 150.679C47.7305 150.751 47.4447 150.82 47.1355 150.889C46.8262 150.957 46.4953 151.022 46.1409 151.086C45.7882 151.149 45.4139 151.209 45.0214 151.268C44.6272 151.326 44.2149 151.38 43.7845 151.433C43.3541 151.484 42.9074 151.533 42.4445 151.578C41.9815 151.624 41.5041 151.666 41.014 151.706C40.5221 151.744 40.0194 151.778 39.5058 151.809C38.9922 151.842 38.4677 151.869 37.9343 151.893C37.4026 151.916 36.8619 151.936 36.3175 151.953C35.7714 151.967 35.2198 151.98 34.6665 151.989C34.1131 151.996 33.5561 152 33.0009 152C32.4439 152 31.8887 151.996 31.3336 151.989C30.7802 151.98 30.2304 151.967 29.6843 151.953C29.1381 151.936 28.5974 151.916 28.0657 151.893C27.5323 151.869 27.0096 151.842 26.4942 151.809C25.9806 151.778 25.4779 151.744 24.986 151.706C24.4959 151.666 24.0185 151.624 23.5556 151.578C23.0926 151.533 22.6459 151.484 22.2155 151.433C21.7851 151.38 21.3728 151.326 20.9786 151.268C20.5861 151.209 20.2118 151.149 19.8592 151.086C19.5065 151.022 19.1738 150.957 18.8645 150.889C18.5553 150.82 18.2696 150.751 18.0073 150.679C17.7451 150.606 17.5064 150.533 17.2948 150.457C17.0814 150.381 16.8934 150.304 16.7324 150.226C16.5697 150.148 16.4358 150.068 16.3273 149.988C16.2188 149.908 16.1356 149.826 16.0814 149.744C16.0271 149.664 16 149.583 16 149.501C16 149.419 16.0271 149.337 16.0814 149.256C16.1356 149.174 16.2188 149.092 16.3273 149.012C16.4358 148.932 16.5697 148.852 16.7324 148.774C16.8934 148.696 17.0814 148.619 17.2948 148.543C17.5064 148.469 17.7451 148.394 18.0073 148.321C18.2696 148.249 18.5553 148.18 18.8645 148.111C19.1738 148.043 19.5065 147.978 19.8592 147.914C20.2118 147.851 20.5861 147.791 20.9786 147.732C21.3728 147.674 21.7851 147.62 22.2155 147.567C22.6459 147.516 23.0926 147.467 23.5556 147.422C24.0185 147.376 24.4959 147.334 24.986 147.294C25.4779 147.256 25.9806 147.222 26.4942 147.191C27.0096 147.158 27.5323 147.131 28.0657 147.107C28.5974 147.084 29.1381 147.064 29.6843 147.047C30.2304 147.033 30.7802 147.02 31.3336 147.013C31.8887 147.004 32.4439 147 33.0009 147C33.5561 147 34.1131 147.004 34.6665 147.013C35.2198 147.02 35.7714 147.033 36.3175 147.047C36.8619 147.064 37.4026 147.084 37.9343 147.107C38.4677 147.131 38.9922 147.158 39.5058 147.191C40.0194 147.222 40.5221 147.256 41.014 147.294C41.5041 147.334 41.9815 147.376 42.4445 147.422C42.9074 147.467 43.3541 147.516 43.7845 147.567C44.2149 147.62 44.6272 147.674 45.0214 147.732C45.4139 147.791 45.7882 147.851 46.1409 147.914C46.4953 147.978 46.8262 148.043 47.1355 148.111C47.4447 148.18 47.7305 148.249 47.9927 148.321C48.2549 148.394 48.4936 148.469 48.707 148.543C48.9186 148.619 49.1066 148.696 49.2676 148.774C49.4303 148.852 49.5642 148.932 49.6727 149.012C49.783 149.092 49.8644 149.174 49.9186 149.256C49.9729 149.337 50 149.419 50 149.501Z" fill="#EEFFEE"/>
<path d="M242.043 87.3848C242.954 87.4824 243.866 87.5638 244.777 87.6289C245.721 87.6615 246.633 87.6777 247.512 87.6777C253.762 87.6777 258.449 86.3105 261.574 83.5762C264.732 80.8418 266.311 76.7565 266.311 71.3203C266.311 67.7721 265.155 65.1517 262.844 63.459C260.565 61.7663 257.066 60.9199 252.346 60.9199C251.499 60.9199 250.637 60.9525 249.758 61.0176C248.879 61.0501 247.967 61.1152 247.023 61.2129L242.043 87.3848ZM247.902 55.5C248 55.5 248.098 55.5 248.195 55.5C249.725 55.6302 250.832 55.6953 251.516 55.6953C256.854 55.6953 260.988 54.3444 263.918 51.6426C266.848 48.9408 268.312 45.1322 268.312 40.2168C268.312 37.1243 267.303 34.8132 265.285 33.2832C263.299 31.7533 260.272 30.9883 256.203 30.9883C255.552 30.9883 254.462 31.0534 252.932 31.1836C252.704 31.1836 252.541 31.1836 252.443 31.1836L247.902 55.5ZM232.229 25.9102H262.209C268.85 25.9102 273.798 26.9681 277.053 29.084C280.308 31.1673 281.936 34.3411 281.936 38.6055C281.936 43.1302 280.454 47.0039 277.492 50.2266C274.53 53.4167 270.233 55.7441 264.602 57.209C269.68 57.4368 273.537 58.7227 276.174 61.0664C278.811 63.4102 280.129 66.7142 280.129 70.9785C280.129 78.0423 277.655 83.4785 272.707 87.2871C267.759 91.0957 260.695 93 251.516 93H221.73V88.1172L228.127 87.5801L229.641 86.1152L239.748 32.502L238.625 31.0859L232.229 30.5977V25.9102ZM301.76 66.0957C306.936 65.8678 311.232 64.582 314.65 62.2383C318.101 59.8945 319.826 57.1439 319.826 53.9863C319.826 52.4238 319.37 51.1868 318.459 50.2754C317.58 49.3639 316.392 48.9082 314.895 48.9082C312.16 48.9082 309.605 50.4382 307.229 53.498C304.885 56.5254 303.062 60.7246 301.76 66.0957ZM300.93 70.2949C300.93 70.36 300.913 70.474 300.881 70.6367C300.783 71.8411 300.734 72.7363 300.734 73.3223C300.734 77.4889 301.662 80.7116 303.518 82.9902C305.373 85.2689 308.01 86.4082 311.428 86.4082C313.641 86.4082 316.066 85.8223 318.703 84.6504C321.372 83.446 324.172 81.6882 327.102 79.377V85.4805C323.521 88.2474 319.956 90.347 316.408 91.7793C312.893 93.179 309.556 93.8789 306.398 93.8789C300.865 93.8789 296.535 92.2025 293.41 88.8496C290.285 85.4967 288.723 80.8418 288.723 74.8848C288.723 70.1322 289.683 65.6725 291.604 61.5059C293.557 57.3392 296.356 53.7096 300.002 50.6172C302.541 48.4688 305.34 46.8086 308.4 45.6367C311.46 44.4648 314.504 43.8789 317.531 43.8789C321.372 43.8789 324.4 44.8555 326.613 46.8086C328.827 48.7617 329.934 51.431 329.934 54.8164C329.934 59.6992 327.639 63.5241 323.049 66.291C318.492 69.0254 312.144 70.3926 304.006 70.3926C303.68 70.3926 303.176 70.3763 302.492 70.3438C301.809 70.3112 301.288 70.2949 300.93 70.2949ZM367.385 37.9219L353.225 63.8984H371.486L367.385 37.9219ZM367.092 25.3242H377.395L387.6 86.1152L388.625 87.3848L394.387 88.1172V93H368.117V88.1172L374.221 87.4824L375.295 86.0176L372.512 69.416H350.197L341.018 86.2129L341.994 87.6777L347.902 88.1172V93H326.418V88.1172L331.984 87.3848L367.092 25.3242ZM410.695 43.5859H415.285L417.287 80.1094C421.193 72.9154 424.514 66.6165 427.248 61.2129C429.982 55.7767 432.424 50.666 434.572 45.8809L443.947 45.0996C444.208 50.2103 444.517 56.0046 444.875 62.4824C445.233 68.9603 445.673 75.959 446.193 83.4785C449.742 78.791 452.688 74.6081 455.031 70.9297C457.375 67.2188 459.133 64.0124 460.305 61.3105L457.863 46.3203C458.71 45.4089 459.654 44.7253 460.695 44.2695C461.737 43.8138 462.86 43.5859 464.064 43.5859C466.018 43.5859 467.596 44.2533 468.801 45.5879C470.005 46.89 470.607 48.599 470.607 50.7148C470.607 54.263 468.736 59.1296 464.992 65.3145C461.249 71.4668 454.478 80.6953 444.68 93H436.086L434.084 58.4785C430.861 64.7285 427.688 70.7181 424.562 76.4473C421.47 82.1764 418.41 87.694 415.383 93H406.008L406.887 89.9238L404.689 51.8867L396.389 50.7148V47.3945L410.695 43.5859ZM506.447 48.5176C506.317 48.5176 506.105 48.5013 505.812 48.4688C505.552 48.4362 505.324 48.4199 505.129 48.4199C500.344 48.4199 496.291 50.8776 492.971 55.793C489.683 60.6758 488.039 66.8118 488.039 74.2012C488.039 77.9447 488.674 80.793 489.943 82.7461C491.245 84.6992 493.15 85.6758 495.656 85.6758C497.121 85.6758 498.667 85.3014 500.295 84.5527C501.955 83.804 503.778 82.6159 505.764 80.9883L510.451 54.5234L506.447 48.5176ZM518.752 43.6836H524.66C524.237 44.9531 523.716 46.9551 523.098 49.6895C522.479 52.4238 521.861 55.5 521.242 58.918L518.215 75.1289C517.954 76.6914 517.743 78.0911 517.58 79.3281C517.417 80.5326 517.336 81.4603 517.336 82.1113C517.336 83.7064 517.727 85.0085 518.508 86.0176C519.322 86.9941 520.331 87.4824 521.535 87.4824C522.512 87.4824 523.537 87.401 524.611 87.2383C525.718 87.043 526.89 86.7663 528.127 86.4082V90.1191C524.579 91.3887 521.6 92.3164 519.191 92.9023C516.815 93.4883 514.764 93.7812 513.039 93.7812C510.598 93.7812 508.726 93.1465 507.424 91.877C506.154 90.5749 505.52 88.7194 505.52 86.3105V85.8223C502.753 88.459 500.018 90.4447 497.316 91.7793C494.647 93.1139 492.092 93.7812 489.65 93.7812C485.126 93.7812 481.594 92.1862 479.055 88.9961C476.516 85.7734 475.246 81.3138 475.246 75.6172C475.246 72.0039 475.734 68.5534 476.711 65.2656C477.72 61.9453 479.234 58.7552 481.252 55.6953C483.726 51.9193 486.916 48.9733 490.822 46.8574C494.761 44.7415 498.96 43.6836 503.42 43.6836C505.275 43.6836 507.147 43.8952 509.035 44.3184C510.956 44.709 512.958 45.2949 515.041 46.0762L518.752 43.6836ZM550.49 43.6836H553.957L551.174 57.1113C554.299 52.7493 557.326 49.429 560.256 47.1504C563.186 44.8392 565.855 43.6836 568.264 43.6836C570.445 43.6836 572.219 44.3835 573.586 45.7832C574.986 47.1504 575.686 48.9245 575.686 51.1055C575.686 53.5794 574.774 55.6139 572.951 57.209C571.161 58.804 568.833 59.6016 565.969 59.6016H565.773L563.088 51.9844C559.182 53.612 556.171 55.8255 554.055 58.625C551.971 61.4245 550.539 65.1517 549.758 69.8066L545.852 93H533.547L541.555 52.4238L533.254 51.2031V47.6875L550.49 43.6836ZM590.529 66.0957C595.705 65.8678 600.002 64.582 603.42 62.2383C606.87 59.8945 608.596 57.1439 608.596 53.9863C608.596 52.4238 608.14 51.1868 607.229 50.2754C606.35 49.3639 605.161 48.9082 603.664 48.9082C600.93 48.9082 598.374 50.4382 595.998 53.498C593.654 56.5254 591.831 60.7246 590.529 66.0957ZM589.699 70.2949C589.699 70.36 589.683 70.474 589.65 70.6367C589.553 71.8411 589.504 72.7363 589.504 73.3223C589.504 77.4889 590.432 80.7116 592.287 82.9902C594.143 85.2689 596.779 86.4082 600.197 86.4082C602.411 86.4082 604.836 85.8223 607.473 84.6504C610.142 83.446 612.941 81.6882 615.871 79.377V85.4805C612.29 88.2474 608.726 90.347 605.178 91.7793C601.662 93.179 598.326 93.8789 595.168 93.8789C589.634 93.8789 585.305 92.2025 582.18 88.8496C579.055 85.4967 577.492 80.8418 577.492 74.8848C577.492 70.1322 578.452 65.6725 580.373 61.5059C582.326 57.3392 585.126 53.7096 588.771 50.6172C591.311 48.4688 594.11 46.8086 597.17 45.6367C600.23 44.4648 603.273 43.8789 606.301 43.8789C610.142 43.8789 613.169 44.8555 615.383 46.8086C617.596 48.7617 618.703 51.431 618.703 54.8164C618.703 59.6992 616.408 63.5241 611.818 66.291C607.261 69.0254 600.913 70.3926 592.775 70.3926C592.45 70.3926 591.945 70.3763 591.262 70.3438C590.578 70.3112 590.057 70.2949 589.699 70.2949Z" fill="white"/>
<path d="M195.27 123.136C194.718 122.464 194.034 121.948 193.218 121.588C192.426 121.228 191.502 121.048 190.446 121.048C189.39 121.048 188.406 121.252 187.494 121.66C186.606 122.068 185.826 122.644 185.154 123.388C184.506 124.108 183.99 124.972 183.606 125.98C183.246 126.988 183.066 128.08 183.066 129.256C183.066 130.456 183.246 131.56 183.606 132.568C183.99 133.552 184.506 134.416 185.154 135.16C185.802 135.88 186.558 136.444 187.422 136.852C188.31 137.26 189.258 137.464 190.266 137.464C191.418 137.464 192.438 137.224 193.326 136.744C194.214 136.264 194.946 135.592 195.522 134.728L200.202 138.22C199.122 139.732 197.754 140.848 196.098 141.568C194.442 142.288 192.738 142.648 190.986 142.648C188.994 142.648 187.158 142.336 185.478 141.712C183.798 141.088 182.346 140.2 181.122 139.048C179.898 137.872 178.938 136.456 178.242 134.8C177.57 133.144 177.234 131.296 177.234 129.256C177.234 127.216 177.57 125.368 178.242 123.712C178.938 122.056 179.898 120.652 181.122 119.5C182.346 118.324 183.798 117.424 185.478 116.8C187.158 116.176 188.994 115.864 190.986 115.864C191.706 115.864 192.45 115.936 193.218 116.08C194.01 116.2 194.778 116.404 195.522 116.692C196.29 116.98 197.022 117.364 197.718 117.844C198.414 118.324 199.038 118.912 199.59 119.608L195.27 123.136ZM201.878 129.256C201.878 127.216 202.214 125.368 202.886 123.712C203.582 122.056 204.542 120.652 205.766 119.5C206.99 118.324 208.442 117.424 210.122 116.8C211.802 116.176 213.638 115.864 215.63 115.864C217.622 115.864 219.458 116.176 221.138 116.8C222.818 117.424 224.27 118.324 225.494 119.5C226.718 120.652 227.666 122.056 228.338 123.712C229.034 125.368 229.382 127.216 229.382 129.256C229.382 131.296 229.034 133.144 228.338 134.8C227.666 136.456 226.718 137.872 225.494 139.048C224.27 140.2 222.818 141.088 221.138 141.712C219.458 142.336 217.622 142.648 215.63 142.648C213.638 142.648 211.802 142.336 210.122 141.712C208.442 141.088 206.99 140.2 205.766 139.048C204.542 137.872 203.582 136.456 202.886 134.8C202.214 133.144 201.878 131.296 201.878 129.256ZM207.71 129.256C207.71 130.456 207.89 131.56 208.25 132.568C208.634 133.552 209.174 134.416 209.87 135.16C210.566 135.88 211.394 136.444 212.354 136.852C213.338 137.26 214.43 137.464 215.63 137.464C216.83 137.464 217.91 137.26 218.87 136.852C219.854 136.444 220.694 135.88 221.39 135.16C222.086 134.416 222.614 133.552 222.974 132.568C223.358 131.56 223.55 130.456 223.55 129.256C223.55 128.08 223.358 126.988 222.974 125.98C222.614 124.972 222.086 124.108 221.39 123.388C220.694 122.644 219.854 122.068 218.87 121.66C217.91 121.252 216.83 121.048 215.63 121.048C214.43 121.048 213.338 121.252 212.354 121.66C211.394 122.068 210.566 122.644 209.87 123.388C209.174 124.108 208.634 124.972 208.25 125.98C207.89 126.988 207.71 128.08 207.71 129.256ZM233.199 116.512H240.831L251.667 134.224H251.739V116.512H257.355V142H250.011L238.887 123.856H238.815V142H233.199V116.512ZM262.771 116.512H279.871V121.696H268.387V126.88H279.007V132.064H268.387V142H262.771V116.512ZM284.111 116.512H301.427V121.696H289.727V126.448H300.779V131.632H289.727V136.816H302.075V142H284.111V116.512ZM306.571 116.512H316.435C317.731 116.512 318.955 116.644 320.107 116.908C321.283 117.148 322.303 117.568 323.167 118.168C324.055 118.744 324.751 119.536 325.255 120.544C325.783 121.528 326.047 122.764 326.047 124.252C326.047 126.052 325.579 127.588 324.643 128.86C323.707 130.108 322.339 130.9 320.539 131.236L327.019 142H320.287L314.959 131.812H312.187V142H306.571V116.512ZM312.187 127.06H315.499C316.003 127.06 316.531 127.048 317.083 127.024C317.659 126.976 318.175 126.868 318.631 126.7C319.087 126.508 319.459 126.22 319.747 125.836C320.059 125.452 320.215 124.912 320.215 124.216C320.215 123.568 320.083 123.052 319.819 122.668C319.555 122.284 319.219 121.996 318.811 121.804C318.403 121.588 317.935 121.444 317.407 121.372C316.879 121.3 316.363 121.264 315.859 121.264H312.187V127.06ZM330.13 116.512H347.446V121.696H335.746V126.448H346.798V131.632H335.746V136.816H348.094V142H330.13V116.512ZM352.59 116.512H360.222L371.058 134.224H371.13V116.512H376.746V142H369.402L358.278 123.856H358.206V142H352.59V116.512ZM398.614 123.136C398.062 122.464 397.378 121.948 396.562 121.588C395.77 121.228 394.846 121.048 393.79 121.048C392.734 121.048 391.75 121.252 390.838 121.66C389.95 122.068 389.17 122.644 388.498 123.388C387.85 124.108 387.334 124.972 386.95 125.98C386.59 126.988 386.41 128.08 386.41 129.256C386.41 130.456 386.59 131.56 386.95 132.568C387.334 133.552 387.85 134.416 388.498 135.16C389.146 135.88 389.902 136.444 390.766 136.852C391.654 137.26 392.602 137.464 393.61 137.464C394.762 137.464 395.782 137.224 396.67 136.744C397.558 136.264 398.29 135.592 398.866 134.728L403.546 138.22C402.466 139.732 401.098 140.848 399.442 141.568C397.786 142.288 396.082 142.648 394.33 142.648C392.338 142.648 390.502 142.336 388.822 141.712C387.142 141.088 385.69 140.2 384.466 139.048C383.242 137.872 382.282 136.456 381.586 134.8C380.914 133.144 380.578 131.296 380.578 129.256C380.578 127.216 380.914 125.368 381.586 123.712C382.282 122.056 383.242 120.652 384.466 119.5C385.69 118.324 387.142 117.424 388.822 116.8C390.502 116.176 392.338 115.864 394.33 115.864C395.05 115.864 395.794 115.936 396.562 116.08C397.354 116.2 398.122 116.404 398.866 116.692C399.634 116.98 400.366 117.364 401.062 117.844C401.758 118.324 402.382 118.912 402.934 119.608L398.614 123.136ZM406.806 116.512H424.122V121.696H412.422V126.448H423.474V131.632H412.422V136.816H424.77V142H406.806V116.512ZM456.586 123.136C456.034 122.464 455.35 121.948 454.534 121.588C453.742 121.228 452.818 121.048 451.762 121.048C450.706 121.048 449.722 121.252 448.81 121.66C447.922 122.068 447.142 122.644 446.47 123.388C445.822 124.108 445.306 124.972 444.922 125.98C444.562 126.988 444.382 128.08 444.382 129.256C444.382 130.456 444.562 131.56 444.922 132.568C445.306 133.552 445.822 134.416 446.47 135.16C447.118 135.88 447.874 136.444 448.738 136.852C449.626 137.26 450.574 137.464 451.582 137.464C452.734 137.464 453.754 137.224 454.642 136.744C455.53 136.264 456.262 135.592 456.838 134.728L461.518 138.22C460.438 139.732 459.07 140.848 457.414 141.568C455.758 142.288 454.054 142.648 452.302 142.648C450.31 142.648 448.474 142.336 446.794 141.712C445.114 141.088 443.662 140.2 442.438 139.048C441.214 137.872 440.254 136.456 439.558 134.8C438.886 133.144 438.55 131.296 438.55 129.256C438.55 127.216 438.886 125.368 439.558 123.712C440.254 122.056 441.214 120.652 442.438 119.5C443.662 118.324 445.114 117.424 446.794 116.8C448.474 116.176 450.31 115.864 452.302 115.864C453.022 115.864 453.766 115.936 454.534 116.08C455.326 116.2 456.094 116.404 456.838 116.692C457.606 116.98 458.338 117.364 459.034 117.844C459.73 118.324 460.354 118.912 460.906 119.608L456.586 123.136ZM472.951 116.512H477.595L488.683 142H482.347L480.151 136.6H470.251L468.127 142H461.935L472.951 116.512ZM475.111 123.928L472.015 131.848H478.243L475.111 123.928ZM491.246 116.512H500.714C502.034 116.512 503.282 116.632 504.458 116.872C505.634 117.112 506.654 117.532 507.518 118.132C508.406 118.708 509.102 119.5 509.606 120.508C510.134 121.492 510.398 122.74 510.398 124.252C510.398 125.74 510.158 126.988 509.678 127.996C509.198 129.004 508.538 129.808 507.698 130.408C506.858 131.008 505.862 131.44 504.71 131.704C503.558 131.944 502.31 132.064 500.966 132.064H496.862V142H491.246V116.512ZM496.862 127.312H500.606C501.11 127.312 501.59 127.264 502.046 127.168C502.526 127.072 502.946 126.916 503.306 126.7C503.69 126.46 503.99 126.148 504.206 125.764C504.446 125.356 504.566 124.852 504.566 124.252C504.566 123.604 504.41 123.088 504.098 122.704C503.81 122.296 503.426 121.984 502.946 121.768C502.49 121.552 501.974 121.42 501.398 121.372C500.822 121.3 500.27 121.264 499.742 121.264H496.862V127.312ZM518.854 121.48H511.582V116.512H531.742V121.48H524.47V142H518.854V121.48ZM534.522 116.512H540.138V142H534.522V116.512ZM543.878 129.256C543.878 127.216 544.214 125.368 544.886 123.712C545.582 122.056 546.542 120.652 547.766 119.5C548.99 118.324 550.442 117.424 552.122 116.8C553.802 116.176 555.638 115.864 557.63 115.864C559.622 115.864 561.458 116.176 563.138 116.8C564.818 117.424 566.27 118.324 567.494 119.5C568.718 120.652 569.666 122.056 570.338 123.712C571.034 125.368 571.382 127.216 571.382 129.256C571.382 131.296 571.034 133.144 570.338 134.8C569.666 136.456 568.718 137.872 567.494 139.048C566.27 140.2 564.818 141.088 563.138 141.712C561.458 142.336 559.622 142.648 557.63 142.648C555.638 142.648 553.802 142.336 552.122 141.712C550.442 141.088 548.99 140.2 547.766 139.048C546.542 137.872 545.582 136.456 544.886 134.8C544.214 133.144 543.878 131.296 543.878 129.256ZM549.71 129.256C549.71 130.456 549.89 131.56 550.25 132.568C550.634 133.552 551.174 134.416 551.87 135.16C552.566 135.88 553.394 136.444 554.354 136.852C555.338 137.26 556.43 137.464 557.63 137.464C558.83 137.464 559.91 137.26 560.87 136.852C561.854 136.444 562.694 135.88 563.39 135.16C564.086 134.416 564.614 133.552 564.974 132.568C565.358 131.56 565.55 130.456 565.55 129.256C565.55 128.08 565.358 126.988 564.974 125.98C564.614 124.972 564.086 124.108 563.39 123.388C562.694 122.644 561.854 122.068 560.87 121.66C559.91 121.252 558.83 121.048 557.63 121.048C556.43 121.048 555.338 121.252 554.354 121.66C553.394 122.068 552.566 122.644 551.87 123.388C551.174 124.108 550.634 124.972 550.25 125.98C549.89 126.988 549.71 128.08 549.71 129.256ZM575.199 116.512H582.831L593.667 134.224H593.739V116.512H599.355V142H592.011L580.887 123.856H580.815V142H575.199V116.512ZM604.483 116.512H610.099V142H604.483V116.512ZM615.207 116.512H622.839L633.675 134.224H633.747V116.512H639.363V142H632.019L620.895 123.856H620.823V142H615.207V116.512ZM667.639 140.2C665.983 141.064 664.255 141.688 662.455 142.072C660.655 142.456 658.819 142.648 656.947 142.648C654.955 142.648 653.119 142.336 651.439 141.712C649.759 141.088 648.307 140.2 647.083 139.048C645.859 137.872 644.899 136.456 644.203 134.8C643.531 133.144 643.195 131.296 643.195 129.256C643.195 127.216 643.531 125.368 644.203 123.712C644.899 122.056 645.859 120.652 647.083 119.5C648.307 118.324 649.759 117.424 651.439 116.8C653.119 116.176 654.955 115.864 656.947 115.864C658.987 115.864 660.859 116.116 662.563 116.62C664.291 117.1 665.803 117.94 667.099 119.14L663.139 123.46C662.371 122.668 661.507 122.068 660.547 121.66C659.587 121.252 658.387 121.048 656.947 121.048C655.747 121.048 654.655 121.252 653.671 121.66C652.711 122.068 651.883 122.644 651.187 123.388C650.491 124.108 649.951 124.972 649.567 125.98C649.207 126.988 649.027 128.08 649.027 129.256C649.027 130.456 649.207 131.56 649.567 132.568C649.951 133.552 650.491 134.416 651.187 135.16C651.883 135.88 652.711 136.444 653.671 136.852C654.655 137.26 655.747 137.464 656.947 137.464C658.171 137.464 659.227 137.332 660.115 137.068C661.003 136.78 661.711 136.492 662.239 136.204V132.064H657.667V126.88H667.639V140.2Z" fill="#F5F5F5"/>
</svg>
