<svg width="2192" height="468" viewBox="0 0 2192 468" fill="none" xmlns="http://www.w3.org/2000/svg">
<g clip-path="url(#clip0_1461_1245)">
<path d="M32.2544 120.05C32.2544 131.768 34.8584 142.112 40.0664 151.081C45.4191 160.05 52.3631 167.067 60.8984 172.13C69.4338 177.193 78.6924 179.725 88.6744 179.725C95.9078 179.725 102.49 178.785 108.421 176.904C114.497 175.023 119.995 172.419 124.913 169.092C129.832 165.62 134.027 161.642 137.499 157.157V181.461C131.134 187.103 124.19 191.298 116.667 194.047C109.145 196.796 99.8138 198.17 88.6744 198.17C78.1138 198.17 68.2041 196.289 58.9454 192.528C49.8314 188.622 41.8024 183.197 34.8584 176.253C27.9144 169.164 22.4894 160.846 18.5834 151.298C14.6774 141.75 12.7244 131.334 12.7244 120.05C12.7244 108.766 14.6774 98.35 18.5834 88.802C22.4894 79.254 27.9144 71.008 34.8584 64.064C41.8024 56.9753 49.8314 51.5503 58.9454 47.789C68.2041 43.883 78.1138 41.93 88.6744 41.93C99.8138 41.93 109.145 43.3043 116.667 46.053C124.19 48.8017 131.134 52.997 137.499 58.639V82.943C134.027 78.4583 129.832 74.5523 124.913 71.225C119.995 67.753 114.497 65.0767 108.421 63.196C102.49 61.3153 95.9078 60.375 88.6744 60.375C78.6924 60.375 69.4338 62.9067 60.8984 67.97C52.3631 73.0333 45.4191 80.0497 40.0664 89.019C34.8584 97.8437 32.2544 108.187 32.2544 120.05ZM180.806 120.05C180.806 131.479 183.266 141.678 188.184 150.647C193.248 159.616 200.119 166.705 208.799 171.913C217.479 177.121 227.317 179.725 238.311 179.725C249.451 179.725 259.288 177.121 267.823 171.913C276.503 166.705 283.303 159.616 288.221 150.647C293.285 141.678 295.816 131.479 295.816 120.05C295.816 108.621 293.285 98.4223 288.221 89.453C283.303 80.4837 276.503 73.395 267.823 68.187C259.288 62.979 249.451 60.375 238.311 60.375C227.317 60.375 217.479 62.979 208.799 68.187C200.119 73.395 193.248 80.4837 188.184 89.453C183.266 98.4223 180.806 108.621 180.806 120.05ZM161.276 120.05C161.276 108.911 163.157 98.6393 166.918 89.236C170.824 79.688 176.249 71.442 183.193 64.498C190.137 57.4093 198.311 51.912 207.714 48.006C217.118 43.9553 227.317 41.93 238.311 41.93C249.451 41.93 259.65 43.9553 268.908 48.006C278.312 51.912 286.485 57.4093 293.429 64.498C300.373 71.442 305.726 79.688 309.487 89.236C313.393 98.6393 315.346 108.911 315.346 120.05C315.346 131.045 313.393 141.316 309.487 150.864C305.726 160.412 300.373 168.73 293.429 175.819C286.485 182.763 278.312 188.26 268.908 192.311C259.65 196.217 249.451 198.17 238.311 198.17C227.317 198.17 217.118 196.217 207.714 192.311C198.311 188.26 190.137 182.763 183.193 175.819C176.249 168.73 170.824 160.412 166.918 150.864C163.157 141.316 161.276 131.045 161.276 120.05ZM456.405 44.1H474.85V203.595L359.84 82.943V196H341.395V36.505L456.405 157.157V44.1ZM519.853 61.46V44.1H587.774V61.46H519.853ZM519.853 122.22V104.86H585.604V122.22H519.853ZM509.654 44.1H528.099V196H509.654V44.1ZM628.353 196V178.64H704.954V196H628.353ZM628.353 61.46V44.1H704.954V61.46H628.353ZM628.353 122.22V104.86H700.614V122.22H628.353ZM618.154 44.1H636.599V196H618.154V44.1ZM764.587 121.135H785.202L839.452 196H816.667L764.587 121.135ZM737.462 44.1H755.907V196H737.462V44.1ZM747.661 60.375V44.1H778.692C788.529 44.1 797.282 45.9807 804.949 49.742C812.761 53.3587 818.909 58.5667 823.394 65.366C828.023 72.1653 830.338 80.2667 830.338 89.67C830.338 98.9287 828.023 107.03 823.394 113.974C818.909 120.773 812.761 126.054 804.949 129.815C797.282 133.432 788.529 135.24 778.692 135.24H747.661V118.965H778.692C785.202 118.965 790.916 117.808 795.835 115.493C800.898 113.178 804.804 109.851 807.553 105.511C810.446 101.171 811.893 95.8907 811.893 89.67C811.893 83.4493 810.446 78.169 807.553 73.829C804.804 69.489 800.898 66.1617 795.835 63.847C790.916 61.5323 785.202 60.375 778.692 60.375H747.661ZM869.088 196V178.64H945.689V196H869.088ZM869.088 61.46V44.1H945.689V61.46H869.088ZM869.088 122.22V104.86H941.349V122.22H869.088ZM858.889 44.1H877.334V196H858.889V44.1ZM1093.21 44.1H1111.65V203.595L996.641 82.943V196H978.196V36.505L1093.21 157.157V44.1ZM1157.31 120.05C1157.31 131.768 1159.91 142.112 1165.12 151.081C1170.47 160.05 1177.41 167.067 1185.95 172.13C1194.49 177.193 1203.74 179.725 1213.73 179.725C1220.96 179.725 1227.54 178.785 1233.47 176.904C1239.55 175.023 1245.05 172.419 1249.97 169.092C1254.88 165.62 1259.08 161.642 1262.55 157.157V181.461C1256.19 187.103 1249.24 191.298 1241.72 194.047C1234.2 196.796 1224.87 198.17 1213.73 198.17C1203.17 198.17 1193.26 196.289 1184 192.528C1174.88 188.622 1166.85 183.197 1159.91 176.253C1152.97 169.164 1147.54 160.846 1143.64 151.298C1139.73 141.75 1137.78 131.334 1137.78 120.05C1137.78 108.766 1139.73 98.35 1143.64 88.802C1147.54 79.254 1152.97 71.008 1159.91 64.064C1166.85 56.9753 1174.88 51.5503 1184 47.789C1193.26 43.883 1203.17 41.93 1213.73 41.93C1224.87 41.93 1234.2 43.3043 1241.72 46.053C1249.24 48.8017 1256.19 52.997 1262.55 58.639V82.943C1259.08 78.4583 1254.88 74.5523 1249.97 71.225C1245.05 67.753 1239.55 65.0767 1233.47 63.196C1227.54 61.3153 1220.96 60.375 1213.73 60.375C1203.74 60.375 1194.49 62.9067 1185.95 67.97C1177.41 73.0333 1170.47 80.0497 1165.12 89.019C1159.91 97.8437 1157.31 108.187 1157.31 120.05ZM1305.21 196V178.64H1381.81V196H1305.21ZM1305.21 61.46V44.1H1381.81V61.46H1305.21ZM1305.21 122.22V104.86H1377.47V122.22H1305.21ZM1295.01 44.1H1313.45V196H1295.01V44.1Z" fill="#FDFBFB"/>
<path d="M32.6794 341.05C32.6794 352.768 35.2834 363.112 40.4914 372.081C45.8441 381.05 52.7881 388.067 61.3234 393.13C69.8588 398.193 79.1174 400.725 89.0994 400.725C96.3328 400.725 102.915 399.785 108.846 397.904C114.922 396.023 120.42 393.419 125.338 390.092C130.257 386.62 134.452 382.642 137.924 378.157V402.461C131.559 408.103 124.615 412.298 117.092 415.047C109.57 417.796 100.239 419.17 89.0994 419.17C78.5388 419.17 68.6291 417.289 59.3704 413.528C50.2564 409.622 42.2274 404.197 35.2834 397.253C28.3394 390.164 22.9144 381.846 19.0084 372.298C15.1024 362.75 13.1494 352.334 13.1494 341.05C13.1494 329.766 15.1024 319.35 19.0084 309.802C22.9144 300.254 28.3394 292.008 35.2834 285.064C42.2274 277.975 50.2564 272.55 59.3704 268.789C68.6291 264.883 78.5388 262.93 89.0994 262.93C100.239 262.93 109.57 264.304 117.092 267.053C124.615 269.802 131.559 273.997 137.924 279.639V303.943C134.452 299.458 130.257 295.552 125.338 292.225C120.42 288.753 114.922 286.077 108.846 284.196C102.915 282.315 96.3328 281.375 89.0994 281.375C79.1174 281.375 69.8588 283.907 61.3234 288.97C52.7881 294.033 45.8441 301.05 40.4914 310.019C35.2834 318.844 32.6794 329.187 32.6794 341.05ZM192.591 371.43L199.101 354.07H266.371L272.881 371.43H192.591ZM232.302 299.386L206.696 359.712L204.96 363.618L182.392 417H161.777L232.302 257.505L302.827 417H282.212L260.078 364.92L258.342 360.58L232.302 299.386ZM332.156 265.1H350.601V417H332.156V265.1ZM342.355 282.46V265.1H373.386C383.224 265.1 391.976 266.981 399.643 270.742C407.455 274.359 413.604 279.567 418.088 286.366C422.718 293.165 425.032 301.267 425.032 310.67C425.032 319.929 422.718 328.03 418.088 334.974C413.604 341.773 407.455 347.054 399.643 350.815C391.976 354.432 383.224 356.24 373.386 356.24H342.355V338.88H373.386C383.224 338.88 391.18 336.493 397.256 331.719C403.477 326.945 406.587 319.929 406.587 310.67C406.587 301.267 403.477 294.25 397.256 289.621C391.18 284.847 383.224 282.46 373.386 282.46H342.355ZM440.131 282.46V265.1H536.696V282.46H497.636V417H479.191V282.46H440.131ZM567.042 265.1H585.487V417H567.042V265.1ZM641.932 341.05C641.932 352.479 644.392 362.678 649.31 371.647C654.374 380.616 661.245 387.705 669.925 392.913C678.605 398.121 688.443 400.725 699.437 400.725C710.577 400.725 720.414 398.121 728.949 392.913C737.629 387.705 744.429 380.616 749.347 371.647C754.411 362.678 756.942 352.479 756.942 341.05C756.942 329.621 754.411 319.422 749.347 310.453C744.429 301.484 737.629 294.395 728.949 289.187C720.414 283.979 710.577 281.375 699.437 281.375C688.443 281.375 678.605 283.979 669.925 289.187C661.245 294.395 654.374 301.484 649.31 310.453C644.392 319.422 641.932 329.621 641.932 341.05ZM622.402 341.05C622.402 329.911 624.283 319.639 628.044 310.236C631.95 300.688 637.375 292.442 644.319 285.498C651.263 278.409 659.437 272.912 668.84 269.006C678.244 264.955 688.443 262.93 699.437 262.93C710.577 262.93 720.776 264.955 730.034 269.006C739.438 272.912 747.611 278.409 754.555 285.498C761.499 292.442 766.852 300.688 770.613 310.236C774.519 319.639 776.472 329.911 776.472 341.05C776.472 352.045 774.519 362.316 770.613 371.864C766.852 381.412 761.499 389.73 754.555 396.819C747.611 403.763 739.438 409.26 730.034 413.311C720.776 417.217 710.577 419.17 699.437 419.17C688.443 419.17 678.244 417.217 668.84 413.311C659.437 409.26 651.263 403.763 644.319 396.819C637.375 389.73 631.95 381.412 628.044 371.864C624.283 362.316 622.402 352.045 622.402 341.05ZM928.381 265.1H946.826V424.595L831.816 303.943V417H813.371V257.505L928.381 378.157V265.1ZM992.481 265.1H1010.93V417H992.481V265.1ZM1171.53 265.1H1189.98V424.595L1074.97 303.943V417H1056.52V257.505L1171.53 378.157V265.1ZM1306.16 357.325V339.965H1376.68C1376.68 350.526 1375.09 360.58 1371.91 370.128C1368.72 379.531 1364.02 387.922 1357.8 395.3C1351.58 402.678 1343.91 408.537 1334.8 412.877C1325.83 417.072 1315.56 419.17 1303.99 419.17C1292.99 419.17 1282.79 417.289 1273.39 413.528C1263.99 409.622 1255.81 404.197 1248.87 397.253C1241.92 390.164 1236.5 381.846 1232.59 372.298C1228.83 362.75 1226.95 352.334 1226.95 341.05C1226.95 329.766 1228.83 319.35 1232.59 309.802C1236.5 300.254 1241.92 292.008 1248.87 285.064C1255.81 277.975 1263.99 272.55 1273.39 268.789C1282.79 264.883 1292.99 262.93 1303.99 262.93C1313.39 262.93 1322 264.16 1329.81 266.619C1337.77 269.078 1344.85 272.695 1351.07 277.469C1357.44 282.243 1362.79 288.174 1367.13 295.263L1354.11 307.198C1349.34 299.097 1342.68 292.804 1334.15 288.319C1325.61 283.69 1315.56 281.375 1303.99 281.375C1293.28 281.375 1283.59 283.907 1274.91 288.97C1266.23 294.033 1259.28 301.05 1254.08 310.019C1249.01 318.844 1246.48 329.187 1246.48 341.05C1246.48 352.768 1249.01 363.112 1254.08 372.081C1259.28 381.05 1266.23 388.067 1274.91 393.13C1283.59 398.193 1293.28 400.725 1303.99 400.725C1311.51 400.725 1318.24 399.64 1324.17 397.47C1330.24 395.155 1335.45 391.973 1339.79 387.922C1344.13 383.871 1347.68 379.242 1350.42 374.034C1353.32 368.826 1355.41 363.256 1356.72 357.325H1306.16Z" fill="#71A8D3"/>
<path d="M1649 326C1649 323.238 1651.24 321 1654 321H1763.19C1767.75 321 1769.93 326.592 1766.58 329.677L1657.39 430.272C1654.18 433.224 1649 430.951 1649 426.595L1649 326Z" fill="#71A8D3"/>
<path d="M1459 70C1459 47.9086 1476.91 30 1499 30H2142C2164.09 30 2182 47.9086 2182 70V301C2182 323.091 2164.09 341 2142 341H1758H1703H1655H1499C1476.91 341 1459 323.091 1459 301V70Z" fill="#71A8D3"/>
<path d="M1482 70C1482 58.9543 1490.95 50 1502 50H2145C2156.05 50 2165 58.9543 2165 70V301C2165 312.046 2156.05 321 2145 321H1764.46H1712.5H1667.16H1502C1490.95 321 1482 312.046 1482 301V70Z" fill="white"/>
<path d="M1664 321H1751L1664 399L1664 321Z" fill="white"/>
<g clip-path="url(#clip1_1461_1245)">
<path d="M1601.38 263.188C1623.19 263.188 1641.56 230.75 1641.56 185.625C1641.56 140.312 1623.25 107.812 1601.38 107.812C1579.56 107.812 1561.19 140.312 1561.19 185.625C1561.19 230.75 1579.62 263.188 1601.38 263.188ZM1601.38 116.25C1617.69 116.25 1632.19 147.875 1632.19 185.625C1632.19 222.375 1617.69 254.75 1601.38 254.75C1585.12 254.75 1570.56 222.375 1570.56 185.625C1570.56 147.875 1585.12 116.25 1601.38 116.25ZM1596.81 109V261.562H1606V109H1596.81ZM1601.38 216.938C1576.81 216.938 1555.19 223.375 1543.88 233.375L1550.88 239.125C1561.75 230.812 1579.19 226.125 1601.38 226.125C1623.62 226.125 1641.06 230.812 1651.94 239.125L1658.94 233.375C1647.63 223.375 1626 216.938 1601.38 216.938ZM1676.19 180.812H1526.62V190H1676.19V180.812ZM1601.38 154.312C1626 154.312 1647.63 147.875 1658.94 137.875L1651.94 132.125C1641.06 140.438 1623.62 145.125 1601.38 145.125C1579.19 145.125 1561.75 140.438 1550.88 132.125L1543.88 137.875C1555.19 147.875 1576.81 154.312 1601.38 154.312ZM1601.38 266.812C1646.31 266.812 1682.81 230.375 1682.81 185.438C1682.81 140.5 1646.31 104 1601.38 104C1556.44 104 1520 140.5 1520 185.438C1520 230.375 1556.44 266.812 1601.38 266.812ZM1601.38 257.312C1561.69 257.312 1529.5 225.125 1529.5 185.438C1529.5 145.688 1561.69 113.5 1601.38 113.5C1641.12 113.5 1673.31 145.688 1673.31 185.438C1673.31 225.125 1641.12 257.312 1601.38 257.312Z" fill="#031522"/>
</g>
<g clip-path="url(#clip2_1461_1245)">
<path d="M2033.09 131.949V141.228H2028.07C2026.35 141.228 2024.71 141.323 2023.16 141.539V132.402C2023.16 119.898 2016.22 113.392 2004.26 113.392H1933.83C1921.87 113.392 1914.99 119.898 1914.99 132.402V176.137C1914.99 188.697 1921.87 195.147 1933.83 195.147H1941.4C1944.05 195.147 1946.19 196.731 1946.19 200.182V218.4L1968.82 198.145C1971.41 195.882 1972.99 195.147 1976.44 195.147H1999.91V204.482H1976.04L1952.17 224.906C1948.56 228.075 1946.47 229.716 1943.48 229.716C1939.25 229.716 1936.82 226.717 1936.82 222.021V204.482H1933.1C1916 204.482 1905 194.355 1905 176.589V131.949C1905 114.241 1916 104 1933.1 104H2004.99C2022.09 104 2033.09 114.241 2033.09 131.949Z" fill="#031522"/>
<path d="M1975.65 127.31L1994.04 176.533C1995.23 179.927 1993.48 183.209 1989.75 183.209C1987.38 183.209 1985.92 181.907 1985.01 179.305L1980.16 165.613H1958.1L1953.24 179.305C1952.34 181.907 1950.87 183.209 1948.5 183.209C1944.84 183.209 1942.97 179.984 1944.22 176.533L1962.55 127.31C1963.68 124.255 1965.94 122.614 1969.1 122.614C1972.26 122.614 1974.52 124.255 1975.65 127.31ZM1960.69 157.692H1977.45L1969.04 133.956L1960.69 157.692Z" fill="#031522"/>
<path d="M2128 169.178V213.817C2128 231.526 2117 241.71 2099.9 241.71H2096.17V259.193C2096.17 263.889 2093.75 266.944 2089.52 266.944C2086.53 266.944 2084.44 265.247 2080.83 262.135L2057.01 241.71H2028.07C2010.29 241.71 1999.91 231.583 1999.91 213.874V169.178C1999.91 151.412 2010.29 141.228 2028.07 141.228H2099.9C2117 141.228 2128 151.412 2128 169.178ZM2041.55 175.175C2039.01 175.175 2037.1 176.985 2037.1 179.362C2037.1 181.851 2039.01 183.661 2041.55 183.661H2047.42C2049.34 190.903 2053.01 197.693 2058.37 203.464C2053.23 207.028 2047.48 209.405 2040.65 211.045C2038.17 211.611 2036.76 213.987 2037.26 216.42C2037.94 219.079 2040.59 220.154 2043.47 219.419C2051.15 217.664 2058.31 214.384 2064.86 209.461C2071.18 214.327 2078.34 217.608 2085.57 219.362C2088.78 220.098 2091.49 219.192 2092.17 216.42C2092.85 213.817 2091.6 211.611 2088.9 211.045C2082.12 209.461 2076.48 207.085 2071.23 203.464C2076.54 197.806 2080.21 191.073 2082.12 183.661H2087.99C2090.53 183.661 2092.45 181.851 2092.45 179.362C2092.45 176.985 2090.53 175.175 2087.99 175.175H2041.55ZM2064.86 198.145C2060.91 193.902 2057.97 188.98 2056.22 183.661H2073.32C2071.63 188.923 2068.75 193.845 2064.86 198.145ZM2058.03 156.448C2055.83 157.523 2054.93 160.069 2056.05 162.388L2059.84 170.366C2060.85 172.629 2063.45 173.534 2065.65 172.516C2068.02 171.328 2068.92 168.782 2067.79 166.575L2063.95 158.654C2062.83 156.278 2060.34 155.259 2058.03 156.448Z" fill="#031522"/>
</g>
<g clip-path="url(#clip3_1461_1245)">
<path d="M1860.56 211.938C1863.69 211.938 1866.06 209.438 1866.06 206.375V164.438C1866.06 161.375 1863.69 158.812 1860.56 158.812C1857.37 158.812 1855 161.375 1855 164.438V206.375C1855 209.438 1857.37 211.938 1860.56 211.938Z" fill="#031522"/>
<path d="M1833.94 249.938C1837.06 249.938 1839.5 247.438 1839.5 244.375V126.438C1839.5 123.375 1837.06 120.812 1833.94 120.812C1830.75 120.812 1828.44 123.375 1828.44 126.438V244.375C1828.44 247.438 1830.75 249.938 1833.94 249.938Z" fill="#031522"/>
<path d="M1807.31 227.188C1810.5 227.188 1812.88 224.75 1812.88 221.688V149.125C1812.88 146.062 1810.5 143.562 1807.31 143.562C1804.12 143.562 1801.81 146.062 1801.81 149.125V221.688C1801.81 224.75 1804.12 227.188 1807.31 227.188Z" fill="#031522"/>
<path d="M1780.69 268.812C1783.88 268.812 1786.25 266.375 1786.25 263.312V107.5C1786.25 104.438 1783.88 102 1780.69 102C1777.56 102 1775.19 104.438 1775.19 107.5V263.312C1775.19 266.375 1777.56 268.812 1780.69 268.812Z" fill="#031522"/>
<path d="M1754.06 236.312C1757.25 236.312 1759.69 233.875 1759.69 230.812V140C1759.69 136.938 1757.25 134.438 1754.06 134.438C1750.94 134.438 1748.62 136.938 1748.62 140V230.812C1748.62 233.875 1750.94 236.312 1754.06 236.312Z" fill="#031522"/>
<path d="M1727.5 204.562C1730.69 204.562 1733.06 202.125 1733.06 199V171.812C1733.06 168.688 1730.69 166.188 1727.5 166.188C1724.31 166.188 1722 168.688 1722 171.812V199C1722 202.125 1724.31 204.562 1727.5 204.562Z" fill="#031522"/>
</g>
</g>
<defs>
<clipPath id="clip0_1461_1245">
<rect width="2192" height="468" fill="white"/>
</clipPath>
<clipPath id="clip1_1461_1245">
<rect width="162.812" height="162.938" fill="white" transform="translate(1520 104)"/>
</clipPath>
<clipPath id="clip2_1461_1245">
<rect width="223" height="163" fill="white" transform="translate(1905 104)"/>
</clipPath>
<clipPath id="clip3_1461_1245">
<rect width="144.062" height="166.812" fill="white" transform="translate(1722 102)"/>
</clipPath>
</defs>
</svg>
