<svg width="688" height="157" viewBox="0 0 688 157" fill="none" xmlns="http://www.w3.org/2000/svg">
<path d="M229.043 78.3848C229.954 78.4824 230.866 78.5638 231.777 78.6289C232.721 78.6615 233.633 78.6777 234.512 78.6777C240.762 78.6777 245.449 77.3105 248.574 74.5762C251.732 71.8418 253.311 67.7565 253.311 62.3203C253.311 58.7721 252.155 56.1517 249.844 54.459C247.565 52.7663 244.066 51.9199 239.346 51.9199C238.499 51.9199 237.637 51.9525 236.758 52.0176C235.879 52.0501 234.967 52.1152 234.023 52.2129L229.043 78.3848ZM234.902 46.5C235 46.5 235.098 46.5 235.195 46.5C236.725 46.6302 237.832 46.6953 238.516 46.6953C243.854 46.6953 247.988 45.3444 250.918 42.6426C253.848 39.9408 255.312 36.1322 255.312 31.2168C255.312 28.1243 254.303 25.8132 252.285 24.2832C250.299 22.7533 247.272 21.9883 243.203 21.9883C242.552 21.9883 241.462 22.0534 239.932 22.1836C239.704 22.1836 239.541 22.1836 239.443 22.1836L234.902 46.5ZM219.229 16.9102H249.209C255.85 16.9102 260.798 17.9681 264.053 20.084C267.308 22.1673 268.936 25.3411 268.936 29.6055C268.936 34.1302 267.454 38.0039 264.492 41.2266C261.53 44.4167 257.233 46.7441 251.602 48.209C256.68 48.4368 260.537 49.7227 263.174 52.0664C265.811 54.4102 267.129 57.7142 267.129 61.9785C267.129 69.0423 264.655 74.4785 259.707 78.2871C254.759 82.0957 247.695 84 238.516 84H208.73V79.1172L215.127 78.5801L216.641 77.1152L226.748 23.502L225.625 22.0859L219.229 21.5977V16.9102ZM288.76 57.0957C293.936 56.8678 298.232 55.582 301.65 53.2383C305.101 50.8945 306.826 48.1439 306.826 44.9863C306.826 43.4238 306.37 42.1868 305.459 41.2754C304.58 40.3639 303.392 39.9082 301.895 39.9082C299.16 39.9082 296.605 41.4382 294.229 44.498C291.885 47.5254 290.062 51.7246 288.76 57.0957ZM287.93 61.2949C287.93 61.36 287.913 61.474 287.881 61.6367C287.783 62.8411 287.734 63.7363 287.734 64.3223C287.734 68.4889 288.662 71.7116 290.518 73.9902C292.373 76.2689 295.01 77.4082 298.428 77.4082C300.641 77.4082 303.066 76.8223 305.703 75.6504C308.372 74.446 311.172 72.6882 314.102 70.377V76.4805C310.521 79.2474 306.956 81.347 303.408 82.7793C299.893 84.179 296.556 84.8789 293.398 84.8789C287.865 84.8789 283.535 83.2025 280.41 79.8496C277.285 76.4967 275.723 71.8418 275.723 65.8848C275.723 61.1322 276.683 56.6725 278.604 52.5059C280.557 48.3392 283.356 44.7096 287.002 41.6172C289.541 39.4688 292.34 37.8086 295.4 36.6367C298.46 35.4648 301.504 34.8789 304.531 34.8789C308.372 34.8789 311.4 35.8555 313.613 37.8086C315.827 39.7617 316.934 42.431 316.934 45.8164C316.934 50.6992 314.639 54.5241 310.049 57.291C305.492 60.0254 299.144 61.3926 291.006 61.3926C290.68 61.3926 290.176 61.3763 289.492 61.3438C288.809 61.3112 288.288 61.2949 287.93 61.2949ZM354.385 28.9219L340.225 54.8984H358.486L354.385 28.9219ZM354.092 16.3242H364.395L374.6 77.1152L375.625 78.3848L381.387 79.1172V84H355.117V79.1172L361.221 78.4824L362.295 77.0176L359.512 60.416H337.197L328.018 77.2129L328.994 78.6777L334.902 79.1172V84H313.418V79.1172L318.984 78.3848L354.092 16.3242ZM397.695 34.5859H402.285L404.287 71.1094C408.193 63.9154 411.514 57.6165 414.248 52.2129C416.982 46.7767 419.424 41.666 421.572 36.8809L430.947 36.0996C431.208 41.2103 431.517 47.0046 431.875 53.4824C432.233 59.9603 432.673 66.959 433.193 74.4785C436.742 69.791 439.688 65.6081 442.031 61.9297C444.375 58.2188 446.133 55.0124 447.305 52.3105L444.863 37.3203C445.71 36.4089 446.654 35.7253 447.695 35.2695C448.737 34.8138 449.86 34.5859 451.064 34.5859C453.018 34.5859 454.596 35.2533 455.801 36.5879C457.005 37.89 457.607 39.599 457.607 41.7148C457.607 45.263 455.736 50.1296 451.992 56.3145C448.249 62.4668 441.478 71.6953 431.68 84H423.086L421.084 49.4785C417.861 55.7285 414.688 61.7181 411.562 67.4473C408.47 73.1764 405.41 78.694 402.383 84H393.008L393.887 80.9238L391.689 42.8867L383.389 41.7148V38.3945L397.695 34.5859ZM493.447 39.5176C493.317 39.5176 493.105 39.5013 492.812 39.4688C492.552 39.4362 492.324 39.4199 492.129 39.4199C487.344 39.4199 483.291 41.8776 479.971 46.793C476.683 51.6758 475.039 57.8118 475.039 65.2012C475.039 68.9447 475.674 71.793 476.943 73.7461C478.245 75.6992 480.15 76.6758 482.656 76.6758C484.121 76.6758 485.667 76.3014 487.295 75.5527C488.955 74.804 490.778 73.6159 492.764 71.9883L497.451 45.5234L493.447 39.5176ZM505.752 34.6836H511.66C511.237 35.9531 510.716 37.9551 510.098 40.6895C509.479 43.4238 508.861 46.5 508.242 49.918L505.215 66.1289C504.954 67.6914 504.743 69.0911 504.58 70.3281C504.417 71.5326 504.336 72.4603 504.336 73.1113C504.336 74.7064 504.727 76.0085 505.508 77.0176C506.322 77.9941 507.331 78.4824 508.535 78.4824C509.512 78.4824 510.537 78.401 511.611 78.2383C512.718 78.043 513.89 77.7663 515.127 77.4082V81.1191C511.579 82.3887 508.6 83.3164 506.191 83.9023C503.815 84.4883 501.764 84.7812 500.039 84.7812C497.598 84.7812 495.726 84.1465 494.424 82.877C493.154 81.5749 492.52 79.7194 492.52 77.3105V76.8223C489.753 79.459 487.018 81.4447 484.316 82.7793C481.647 84.1139 479.092 84.7812 476.65 84.7812C472.126 84.7812 468.594 83.1862 466.055 79.9961C463.516 76.7734 462.246 72.3138 462.246 66.6172C462.246 63.0039 462.734 59.5534 463.711 56.2656C464.72 52.9453 466.234 49.7552 468.252 46.6953C470.726 42.9193 473.916 39.9733 477.822 37.8574C481.761 35.7415 485.96 34.6836 490.42 34.6836C492.275 34.6836 494.147 34.8952 496.035 35.3184C497.956 35.709 499.958 36.2949 502.041 37.0762L505.752 34.6836ZM537.49 34.6836H540.957L538.174 48.1113C541.299 43.7493 544.326 40.429 547.256 38.1504C550.186 35.8392 552.855 34.6836 555.264 34.6836C557.445 34.6836 559.219 35.3835 560.586 36.7832C561.986 38.1504 562.686 39.9245 562.686 42.1055C562.686 44.5794 561.774 46.6139 559.951 48.209C558.161 49.804 555.833 50.6016 552.969 50.6016H552.773L550.088 42.9844C546.182 44.612 543.171 46.8255 541.055 49.625C538.971 52.4245 537.539 56.1517 536.758 60.8066L532.852 84H520.547L528.555 43.4238L520.254 42.2031V38.6875L537.49 34.6836ZM577.529 57.0957C582.705 56.8678 587.002 55.582 590.42 53.2383C593.87 50.8945 595.596 48.1439 595.596 44.9863C595.596 43.4238 595.14 42.1868 594.229 41.2754C593.35 40.3639 592.161 39.9082 590.664 39.9082C587.93 39.9082 585.374 41.4382 582.998 44.498C580.654 47.5254 578.831 51.7246 577.529 57.0957ZM576.699 61.2949C576.699 61.36 576.683 61.474 576.65 61.6367C576.553 62.8411 576.504 63.7363 576.504 64.3223C576.504 68.4889 577.432 71.7116 579.287 73.9902C581.143 76.2689 583.779 77.4082 587.197 77.4082C589.411 77.4082 591.836 76.8223 594.473 75.6504C597.142 74.446 599.941 72.6882 602.871 70.377V76.4805C599.29 79.2474 595.726 81.347 592.178 82.7793C588.662 84.179 585.326 84.8789 582.168 84.8789C576.634 84.8789 572.305 83.2025 569.18 79.8496C566.055 76.4967 564.492 71.8418 564.492 65.8848C564.492 61.1322 565.452 56.6725 567.373 52.5059C569.326 48.3392 572.126 44.7096 575.771 41.6172C578.311 39.4688 581.11 37.8086 584.17 36.6367C587.23 35.4648 590.273 34.8789 593.301 34.8789C597.142 34.8789 600.169 35.8555 602.383 37.8086C604.596 39.7617 605.703 42.431 605.703 45.8164C605.703 50.6992 603.408 54.5241 598.818 57.291C594.261 60.0254 587.913 61.3926 579.775 61.3926C579.45 61.3926 578.945 61.3763 578.262 61.3438C577.578 61.3112 577.057 61.2949 576.699 61.2949Z" fill="white"/>
<path d="M156.466 125.04C155.853 124.293 155.093 123.72 154.186 123.32C153.306 122.92 152.28 122.72 151.106 122.72C149.933 122.72 148.84 122.947 147.826 123.4C146.84 123.853 145.973 124.493 145.226 125.32C144.506 126.12 143.933 127.08 143.506 128.2C143.106 129.32 142.906 130.533 142.906 131.84C142.906 133.173 143.106 134.4 143.506 135.52C143.933 136.613 144.506 137.573 145.226 138.4C145.946 139.2 146.786 139.827 147.746 140.28C148.733 140.733 149.786 140.96 150.906 140.96C152.186 140.96 153.32 140.693 154.306 140.16C155.293 139.627 156.106 138.88 156.746 137.92L161.946 141.8C160.746 143.48 159.226 144.72 157.386 145.52C155.546 146.32 153.653 146.72 151.706 146.72C149.493 146.72 147.453 146.373 145.586 145.68C143.72 144.987 142.106 144 140.746 142.72C139.386 141.413 138.32 139.84 137.546 138C136.8 136.16 136.426 134.107 136.426 131.84C136.426 129.573 136.8 127.52 137.546 125.68C138.32 123.84 139.386 122.28 140.746 121C142.106 119.693 143.72 118.693 145.586 118C147.453 117.307 149.493 116.96 151.706 116.96C152.506 116.96 153.333 117.04 154.186 117.2C155.066 117.333 155.92 117.56 156.746 117.88C157.6 118.2 158.413 118.627 159.186 119.16C159.96 119.693 160.653 120.347 161.266 121.12L156.466 125.04ZM163.809 131.84C163.809 129.573 164.183 127.52 164.929 125.68C165.703 123.84 166.769 122.28 168.129 121C169.489 119.693 171.103 118.693 172.969 118C174.836 117.307 176.876 116.96 179.089 116.96C181.303 116.96 183.343 117.307 185.209 118C187.076 118.693 188.689 119.693 190.049 121C191.409 122.28 192.463 123.84 193.209 125.68C193.983 127.52 194.369 129.573 194.369 131.84C194.369 134.107 193.983 136.16 193.209 138C192.463 139.84 191.409 141.413 190.049 142.72C188.689 144 187.076 144.987 185.209 145.68C183.343 146.373 181.303 146.72 179.089 146.72C176.876 146.72 174.836 146.373 172.969 145.68C171.103 144.987 169.489 144 168.129 142.72C166.769 141.413 165.703 139.84 164.929 138C164.183 136.16 163.809 134.107 163.809 131.84ZM170.289 131.84C170.289 133.173 170.489 134.4 170.889 135.52C171.316 136.613 171.916 137.573 172.689 138.4C173.463 139.2 174.383 139.827 175.449 140.28C176.543 140.733 177.756 140.96 179.089 140.96C180.423 140.96 181.623 140.733 182.689 140.28C183.783 139.827 184.716 139.2 185.489 138.4C186.263 137.573 186.849 136.613 187.249 135.52C187.676 134.4 187.889 133.173 187.889 131.84C187.889 130.533 187.676 129.32 187.249 128.2C186.849 127.08 186.263 126.12 185.489 125.32C184.716 124.493 183.783 123.853 182.689 123.4C181.623 122.947 180.423 122.72 179.089 122.72C177.756 122.72 176.543 122.947 175.449 123.4C174.383 123.853 173.463 124.493 172.689 125.32C171.916 126.12 171.316 127.08 170.889 128.2C170.489 129.32 170.289 130.533 170.289 131.84ZM198.61 117.68H207.09L219.13 137.36H219.21V117.68H225.45V146H217.29L204.93 125.84H204.85V146H198.61V117.68ZM231.468 117.68H250.468V123.44H237.708V129.2H249.508V134.96H237.708V146H231.468V117.68ZM255.179 117.68H274.419V123.44H261.419V128.72H273.699V134.48H261.419V140.24H275.139V146H255.179V117.68ZM280.134 117.68H291.094C292.534 117.68 293.894 117.827 295.174 118.12C296.481 118.387 297.614 118.853 298.574 119.52C299.561 120.16 300.334 121.04 300.894 122.16C301.481 123.253 301.774 124.627 301.774 126.28C301.774 128.28 301.254 129.987 300.214 131.4C299.174 132.787 297.654 133.667 295.654 134.04L302.854 146H295.374L289.454 134.68H286.374V146H280.134V117.68ZM286.374 129.4H290.054C290.614 129.4 291.201 129.387 291.814 129.36C292.454 129.307 293.027 129.187 293.534 129C294.041 128.787 294.454 128.467 294.774 128.04C295.121 127.613 295.294 127.013 295.294 126.24C295.294 125.52 295.147 124.947 294.854 124.52C294.561 124.093 294.187 123.773 293.734 123.56C293.281 123.32 292.761 123.16 292.174 123.08C291.587 123 291.014 122.96 290.454 122.96H286.374V129.4ZM306.311 117.68H325.551V123.44H312.551V128.72H324.831V134.48H312.551V140.24H326.271V146H306.311V117.68ZM331.267 117.68H339.747L351.787 137.36H351.867V117.68H358.107V146H349.947L337.587 125.84H337.507V146H331.267V117.68ZM382.404 125.04C381.791 124.293 381.031 123.72 380.124 123.32C379.244 122.92 378.217 122.72 377.044 122.72C375.871 122.72 374.777 122.947 373.764 123.4C372.777 123.853 371.911 124.493 371.164 125.32C370.444 126.12 369.871 127.08 369.444 128.2C369.044 129.32 368.844 130.533 368.844 131.84C368.844 133.173 369.044 134.4 369.444 135.52C369.871 136.613 370.444 137.573 371.164 138.4C371.884 139.2 372.724 139.827 373.684 140.28C374.671 140.733 375.724 140.96 376.844 140.96C378.124 140.96 379.257 140.693 380.244 140.16C381.231 139.627 382.044 138.88 382.684 137.92L387.884 141.8C386.684 143.48 385.164 144.72 383.324 145.52C381.484 146.32 379.591 146.72 377.644 146.72C375.431 146.72 373.391 146.373 371.524 145.68C369.657 144.987 368.044 144 366.684 142.72C365.324 141.413 364.257 139.84 363.484 138C362.737 136.16 362.364 134.107 362.364 131.84C362.364 129.573 362.737 127.52 363.484 125.68C364.257 123.84 365.324 122.28 366.684 121C368.044 119.693 369.657 118.693 371.524 118C373.391 117.307 375.431 116.96 377.644 116.96C378.444 116.96 379.271 117.04 380.124 117.2C381.004 117.333 381.857 117.56 382.684 117.88C383.537 118.2 384.351 118.627 385.124 119.16C385.897 119.693 386.591 120.347 387.204 121.12L382.404 125.04ZM391.507 117.68H410.747V123.44H397.747V128.72H410.027V134.48H397.747V140.24H411.467V146H391.507V117.68ZM446.818 125.04C446.205 124.293 445.445 123.72 444.538 123.32C443.658 122.92 442.631 122.72 441.458 122.72C440.285 122.72 439.191 122.947 438.178 123.4C437.191 123.853 436.325 124.493 435.578 125.32C434.858 126.12 434.285 127.08 433.858 128.2C433.458 129.32 433.258 130.533 433.258 131.84C433.258 133.173 433.458 134.4 433.858 135.52C434.285 136.613 434.858 137.573 435.578 138.4C436.298 139.2 437.138 139.827 438.098 140.28C439.085 140.733 440.138 140.96 441.258 140.96C442.538 140.96 443.671 140.693 444.658 140.16C445.645 139.627 446.458 138.88 447.098 137.92L452.298 141.8C451.098 143.48 449.578 144.72 447.738 145.52C445.898 146.32 444.005 146.72 442.058 146.72C439.845 146.72 437.805 146.373 435.938 145.68C434.071 144.987 432.458 144 431.098 142.72C429.738 141.413 428.671 139.84 427.898 138C427.151 136.16 426.778 134.107 426.778 131.84C426.778 129.573 427.151 127.52 427.898 125.68C428.671 123.84 429.738 122.28 431.098 121C432.458 119.693 434.071 118.693 435.938 118C437.805 117.307 439.845 116.96 442.058 116.96C442.858 116.96 443.685 117.04 444.538 117.2C445.418 117.333 446.271 117.56 447.098 117.88C447.951 118.2 448.765 118.627 449.538 119.16C450.311 119.693 451.005 120.347 451.618 121.12L446.818 125.04ZM465.001 117.68H470.161L482.481 146H475.441L473.001 140H462.001L459.641 146H452.761L465.001 117.68ZM467.401 125.92L463.961 134.72H470.881L467.401 125.92ZM485.329 117.68H495.849C497.316 117.68 498.703 117.813 500.009 118.08C501.316 118.347 502.449 118.813 503.409 119.48C504.396 120.12 505.169 121 505.729 122.12C506.316 123.213 506.609 124.6 506.609 126.28C506.609 127.933 506.343 129.32 505.809 130.44C505.276 131.56 504.543 132.453 503.609 133.12C502.676 133.787 501.569 134.267 500.289 134.56C499.009 134.827 497.623 134.96 496.129 134.96H491.569V146H485.329V117.68ZM491.569 129.68H495.729C496.289 129.68 496.823 129.627 497.329 129.52C497.863 129.413 498.329 129.24 498.729 129C499.156 128.733 499.489 128.387 499.729 127.96C499.996 127.507 500.129 126.947 500.129 126.28C500.129 125.56 499.956 124.987 499.609 124.56C499.289 124.107 498.863 123.76 498.329 123.52C497.823 123.28 497.249 123.133 496.609 123.08C495.969 123 495.356 122.96 494.769 122.96H491.569V129.68ZM516.005 123.2H507.925V117.68H530.325V123.2H522.245V146H516.005V123.2ZM533.413 117.68H539.653V146H533.413V117.68ZM543.809 131.84C543.809 129.573 544.183 127.52 544.929 125.68C545.703 123.84 546.769 122.28 548.129 121C549.489 119.693 551.103 118.693 552.969 118C554.836 117.307 556.876 116.96 559.089 116.96C561.303 116.96 563.343 117.307 565.209 118C567.076 118.693 568.689 119.693 570.049 121C571.409 122.28 572.463 123.84 573.209 125.68C573.983 127.52 574.369 129.573 574.369 131.84C574.369 134.107 573.983 136.16 573.209 138C572.463 139.84 571.409 141.413 570.049 142.72C568.689 144 567.076 144.987 565.209 145.68C563.343 146.373 561.303 146.72 559.089 146.72C556.876 146.72 554.836 146.373 552.969 145.68C551.103 144.987 549.489 144 548.129 142.72C546.769 141.413 545.703 139.84 544.929 138C544.183 136.16 543.809 134.107 543.809 131.84ZM550.289 131.84C550.289 133.173 550.489 134.4 550.889 135.52C551.316 136.613 551.916 137.573 552.689 138.4C553.463 139.2 554.383 139.827 555.449 140.28C556.543 140.733 557.756 140.96 559.089 140.96C560.423 140.96 561.623 140.733 562.689 140.28C563.783 139.827 564.716 139.2 565.489 138.4C566.263 137.573 566.849 136.613 567.249 135.52C567.676 134.4 567.889 133.173 567.889 131.84C567.889 130.533 567.676 129.32 567.249 128.2C566.849 127.08 566.263 126.12 565.489 125.32C564.716 124.493 563.783 123.853 562.689 123.4C561.623 122.947 560.423 122.72 559.089 122.72C557.756 122.72 556.543 122.947 555.449 123.4C554.383 123.853 553.463 124.493 552.689 125.32C551.916 126.12 551.316 127.08 550.889 128.2C550.489 129.32 550.289 130.533 550.289 131.84ZM578.61 117.68H587.09L599.13 137.36H599.21V117.68H605.45V146H597.29L584.93 125.84H584.85V146H578.61V117.68ZM611.148 117.68H617.388V146H611.148V117.68ZM623.064 117.68H631.544L643.584 137.36H643.664V117.68H649.904V146H641.744L629.384 125.84H629.304V146H623.064V117.68ZM681.321 144C679.481 144.96 677.561 145.653 675.561 146.08C673.561 146.507 671.521 146.72 669.441 146.72C667.227 146.72 665.187 146.373 663.321 145.68C661.454 144.987 659.841 144 658.481 142.72C657.121 141.413 656.054 139.84 655.281 138C654.534 136.16 654.161 134.107 654.161 131.84C654.161 129.573 654.534 127.52 655.281 125.68C656.054 123.84 657.121 122.28 658.481 121C659.841 119.693 661.454 118.693 663.321 118C665.187 117.307 667.227 116.96 669.441 116.96C671.707 116.96 673.787 117.24 675.681 117.8C677.601 118.333 679.281 119.267 680.721 120.6L676.321 125.4C675.467 124.52 674.507 123.853 673.441 123.4C672.374 122.947 671.041 122.72 669.441 122.72C668.107 122.72 666.894 122.947 665.801 123.4C664.734 123.853 663.814 124.493 663.041 125.32C662.267 126.12 661.667 127.08 661.241 128.2C660.841 129.32 660.641 130.533 660.641 131.84C660.641 133.173 660.841 134.4 661.241 135.52C661.667 136.613 662.267 137.573 663.041 138.4C663.814 139.2 664.734 139.827 665.801 140.28C666.894 140.733 668.107 140.96 669.441 140.96C670.801 140.96 671.974 140.813 672.961 140.52C673.947 140.2 674.734 139.88 675.321 139.56V134.96H670.241V129.2H681.321V144Z" fill="white"/>
<path d="M49.9842 154.43C49.9842 154.514 49.956 154.598 49.8995 154.681C49.8429 154.765 49.7582 154.849 49.6433 154.931C49.5302 155.013 49.3908 155.096 49.2213 155.176C49.0536 155.256 48.8577 155.335 48.6373 155.413C48.415 155.492 48.1664 155.567 47.8932 155.641C47.6201 155.716 47.3224 155.787 47.0003 155.858C46.6781 155.927 46.3334 155.995 45.9642 156.06C45.5968 156.125 45.2069 156.187 44.7981 156.247C44.3874 156.307 43.9579 156.363 43.5095 156.417C43.0612 156.469 42.5959 156.52 42.1136 156.566C41.6314 156.613 41.134 156.656 40.6235 156.697C40.1111 156.736 39.5874 156.772 39.0524 156.804C38.5174 156.837 37.9711 156.865 37.4153 156.89C36.8615 156.914 36.2982 156.935 35.7312 156.951C35.1623 156.966 34.5877 156.979 34.0113 156.989C33.4348 156.996 32.8546 157 32.2763 157C31.696 157 31.1177 156.996 30.5394 156.989C29.9629 156.979 29.3903 156.966 28.8213 156.951C28.2524 156.935 27.6891 156.914 27.1353 156.89C26.5796 156.865 26.0351 156.837 25.4983 156.804C24.9633 156.772 24.4396 156.736 23.9272 156.697C23.4166 156.656 22.9193 156.613 22.437 156.566C21.9548 156.52 21.4895 156.469 21.0411 156.417C20.5928 156.363 20.1633 156.307 19.7526 156.247C19.3438 156.187 18.9538 156.125 18.5865 156.06C18.2191 155.995 17.8725 155.927 17.5504 155.858C17.2283 155.787 16.9306 155.716 16.6575 155.641C16.3843 155.567 16.1356 155.492 15.9152 155.413C15.6929 155.335 15.497 155.256 15.3294 155.176C15.1598 155.096 15.0204 155.013 14.9074 154.931C14.7943 154.849 14.7077 154.765 14.6512 154.681C14.5947 154.598 14.5664 154.514 14.5664 154.43C14.5664 154.346 14.5947 154.262 14.6512 154.178C14.7077 154.094 14.7943 154.01 14.9074 153.928C15.0204 153.845 15.1598 153.763 15.3294 153.683C15.497 153.602 15.6929 153.524 15.9152 153.445C16.1356 153.369 16.3843 153.292 16.6575 153.217C16.9306 153.143 17.2283 153.072 17.5504 153.001C17.8725 152.931 18.2191 152.864 18.5865 152.799C18.9538 152.733 19.3438 152.672 19.7526 152.612C20.1633 152.552 20.5928 152.496 21.0411 152.442C21.4895 152.389 21.9548 152.339 22.437 152.292C22.9193 152.246 23.4166 152.203 23.9272 152.161C24.4396 152.122 24.9633 152.087 25.4983 152.055C26.0351 152.021 26.5796 151.993 27.1353 151.969C27.6891 151.945 28.2524 151.924 28.8213 151.907C29.3903 151.892 29.9629 151.879 30.5394 151.872C31.1177 151.862 31.696 151.859 32.2763 151.859C32.8546 151.859 33.4348 151.862 34.0113 151.872C34.5877 151.879 35.1623 151.892 35.7312 151.907C36.2982 151.924 36.8615 151.945 37.4153 151.969C37.9711 151.993 38.5174 152.021 39.0524 152.055C39.5874 152.087 40.1111 152.122 40.6235 152.161C41.134 152.203 41.6314 152.246 42.1136 152.292C42.5959 152.339 43.0612 152.389 43.5095 152.442C43.9579 152.496 44.3874 152.552 44.7981 152.612C45.2069 152.672 45.5968 152.733 45.9642 152.799C46.3334 152.864 46.6781 152.931 47.0003 153.001C47.3224 153.072 47.6201 153.143 47.8932 153.217C48.1664 153.292 48.415 153.369 48.6373 153.445C48.8577 153.524 49.0536 153.602 49.2213 153.683C49.3908 153.763 49.5302 153.845 49.6433 153.928C49.7582 154.01 49.8429 154.094 49.8995 154.178C49.956 154.262 49.9842 154.346 49.9842 154.43Z" fill="#DDDDDD">
    <animate attributeName="fill-opacity" values="1;0.9;0.6;1" dur="2s" repeatCount="indefinite" />
  </path>
<path d="M37.9801 104.459C37.5654 104.459 37.1458 104.41 36.7311 104.317C33.7451 103.621 31.8617 100.641 32.5399 97.626L32.818 96.3908C33.8817 91.6459 34.7892 87.5677 38.024 82.6071C38.4582 81.9405 38.9022 81.2934 39.3658 80.6268C41.9517 76.823 43.5227 74.3526 42.986 71.7252C42.7079 70.3675 41.8151 69.1616 40.7075 68.6665C39.7512 68.2303 38.7022 68.3724 37.5019 69.0832C34.8526 70.6272 31.447 69.7449 29.8906 67.0735C28.339 64.4167 29.2319 61.0002 31.8959 59.4366C36.2236 56.9024 40.9661 56.5641 45.2353 58.466C49.6411 60.4267 52.8613 64.5393 53.8908 69.4557C55.4179 76.8574 51.6122 82.4208 48.5628 86.901L47.343 88.7098C45.2206 91.9694 44.6352 94.5526 43.6789 98.8319L43.4007 100.101C42.8006 102.694 40.5221 104.459 37.9801 104.459Z" fill="white" fill-opacity="0.9">
<!-- ? Question mark Upper body -->
    <!-- <animate attributeName="fill-opacity" values="0.9;0.8;0.5;0.9" dur="2s" repeatCount="indefinite" /> -->
  </path>
<path d="M32.2983 142.347C32.1474 142.347 31.9917 142.347 31.8213 142.347C21.097 142.161 12.4708 135.584 9.3212 125.219C8.43035 122.265 10.0903 119.139 13.0112 118.241C15.9758 117.357 19.0524 119.011 19.9433 121.956C21.6617 127.614 26.1646 131.069 32.0209 131.177C32.1134 131.177 32.1912 131.177 32.2691 131.177C37.4633 131.177 43.6409 128.238 45.9142 121.583C47.0388 118.319 47.4672 114.869 47.9442 111.232C48.6501 105.692 49.4484 99.4097 52.968 93.3291C53.9368 91.6555 54.9201 90.0949 55.8743 88.5637C59.2429 83.1946 61.9009 78.9397 62.0664 72.8443C62.3926 61.8854 58.6588 54.2146 51.2642 50.6222C43.305 46.7549 31.9284 48.394 24.8162 54.4305C20.9558 57.7089 16.9007 63.4951 19.4662 72.4566C20.3132 75.4257 18.6192 78.5225 15.6691 79.3715C12.7191 80.2206 9.66196 78.5225 8.80032 75.5484C5.5582 64.2411 8.78571 53.4245 17.6504 45.8862C28.0729 37.0376 44.225 34.7948 56.0738 40.5515C62.7138 43.7661 73.7643 52.3104 73.1509 73.1682C72.888 82.3113 68.9985 88.5146 65.2501 94.502C64.3592 95.9253 63.4343 97.3828 62.5435 98.9288C60.163 103.061 59.5934 107.503 58.9314 112.656C58.4251 116.695 57.8896 120.871 56.3951 125.219C52.895 135.526 43.2417 142.347 32.2983 142.347Z" fill="#F5F5F5">
<!-- Ear big outline -->
    <animate attributeName="fill-opacity" values="1;0.9;0.6;1" dur="2s" repeatCount="indefinite" />
  </path>
<path d="M101.299 105.464C100.598 105.464 99.887 105.339 99.1861 105.085C96.1607 103.956 94.6454 100.678 95.8153 97.7627L96.1091 97.0414C97.2791 94.1212 100.696 92.6637 103.706 93.7929C106.737 94.9222 108.247 98.2005 107.077 101.121L106.783 101.842C105.886 104.081 103.66 105.464 101.299 105.464Z" fill="#F5F5F5" fill-opacity="0.62">
<!-- 2nd outer ear bar 2nd lower dot -->
    <animate attributeName="fill-opacity" values="0.62;0.52;0.3;0.62" dur="2s" repeatCount="indefinite" />
  </path>
<path d="M104.277 92.6049C103.891 92.6049 103.505 92.5558 103.105 92.4772C100.104 91.8285 98.1903 88.8557 98.8248 85.8485C101.182 74.7385 100.826 63.3533 97.7755 52.9116C92.7972 35.8707 81.0103 22.7313 64.6015 15.9306C51.5798 10.5255 36.5424 10.0145 22.3201 14.5056C19.3771 15.4343 16.2632 13.7784 15.3554 10.8351C14.4281 7.89172 16.0631 4.74691 19.0061 3.81821C35.7078 -1.44933 53.4296 -0.830201 68.8672 5.58225C76.9774 8.94355 84.1412 13.6015 90.1741 19.3523C98.7107 27.4898 104.983 37.8154 108.469 49.752C112.047 61.9775 112.476 75.2495 109.719 88.1727C109.147 90.8065 106.834 92.6049 104.277 92.6049Z" fill="white" fill-opacity="0.3">
<!-- 2nd outer ear bar -->
    <animate attributeName="fill-opacity" values="0.3;0.2;0.01;0.3" dur="2s" repeatCount="indefinite" />
  </path>
<path d="M5.55523 21.9276C3.65986 21.9276 1.81321 20.9338 0.785129 19.1561C-0.783791 16.4646 0.0786267 12.9691 2.70973 11.3612L3.65986 10.747C4.20069 10.4025 4.30789 10.3076 5.94015 9.50363C8.70768 8.15038 12.0307 9.32886 13.3511 12.1652C14.691 14.9965 13.5216 18.3821 10.7541 19.7554C10.2279 20.005 9.98426 20.1299 9.81372 20.2248C9.45803 20.4595 9.10722 20.6991 8.38123 21.1386C7.50907 21.6729 6.51997 21.9276 5.55523 21.9276Z" fill="#E0E0E0" fill-opacity="0.9">
<!-- 2nd outer ear bar dot -->
    <animate attributeName="fill-opacity" values="0.9;0.8;0.5;0.9" dur="2s" repeatCount="indefinite" />
  </path>
<path d="M82.5393 98.4325C81.8465 98.4325 81.1446 98.2826 80.4655 97.9873C77.8355 96.8063 76.6231 93.6711 77.7763 90.967C78.3232 89.6688 78.8246 88.3379 79.2713 86.9928C80.192 84.2044 83.141 82.6953 85.8621 83.6561C88.5831 84.6027 90.0371 87.6302 89.1164 90.4233C88.5831 92.0496 87.9769 93.657 87.3024 95.2411C86.4546 97.2328 84.5403 98.4325 82.5393 98.4325Z" fill="white" fill-opacity="0.8">
<!-- 1st outer ear bar dot -->
    <animate attributeName="fill-opacity" values="0.8;0.7;0.4;0.8" dur="2s" repeatCount="indefinite" />
  </path>
<path d="M87.7432 79.3487C87.636 79.3487 87.5288 79.3487 87.4361 79.334C84.3754 79.1627 82.0213 76.5386 82.1919 73.4542C83.2349 54.8357 74.2963 39.7715 58.2954 33.1525C49.0741 29.3387 37.8448 29.231 27.4586 32.844C24.5343 33.8477 21.3955 32.3006 20.3964 29.4023C19.3924 26.4991 20.9179 23.3169 23.8276 22.3133C36.753 17.8239 50.8628 18.0246 62.5405 22.8567C82.806 31.2382 94.6056 50.8555 93.314 74.0711C93.1142 77.0477 90.6675 79.3487 87.7432 79.3487Z" fill="white" fill-opacity="0.5">
<!-- 1st outer ear bar -->
    <animate attributeName="fill-opacity" values="0.5;0.4;0.2;0.5" dur="2s" repeatCount="indefinite" />
  </path>
<path d="M41.1819 115.505C41.1819 115.902 41.1463 116.293 41.0702 116.679C40.989 117.071 40.8773 117.447 40.7249 117.813C40.5726 118.179 40.3899 118.525 40.1665 118.855C39.9482 119.18 39.6994 119.485 39.4201 119.765C39.1409 120.045 38.8363 120.299 38.5063 120.517C38.1763 120.736 37.831 120.924 37.4655 121.071C37.0999 121.224 36.7191 121.341 36.3333 121.417C35.9474 121.493 35.5514 121.534 35.1554 121.534C34.7594 121.534 34.3684 121.493 33.9826 121.417C33.5917 121.341 33.216 121.224 32.8504 121.071C32.4849 120.924 32.1396 120.736 31.8096 120.517C31.4796 120.299 31.175 120.045 30.8957 119.765C30.6165 119.485 30.3677 119.18 30.1443 118.855C29.926 118.525 29.7432 118.179 29.5909 117.813C29.4386 117.447 29.3218 117.071 29.2457 116.679C29.1695 116.293 29.1289 115.902 29.1289 115.505C29.1289 115.109 29.1695 114.717 29.2457 114.331C29.3218 113.944 29.4386 113.563 29.5909 113.202C29.7432 112.836 29.926 112.485 30.1443 112.16C30.3677 111.83 30.6165 111.525 30.8957 111.245C31.175 110.965 31.4796 110.716 31.8096 110.498C32.1396 110.274 32.4849 110.091 32.8504 109.939C33.216 109.786 33.5917 109.674 33.9826 109.598C34.3684 109.517 34.7594 109.481 35.1554 109.481C35.5514 109.481 35.9474 109.517 36.3333 109.598C36.7191 109.674 37.0999 109.786 37.4655 109.939C37.831 110.091 38.1763 110.274 38.5063 110.498C38.8363 110.716 39.1409 110.965 39.4201 111.245C39.6994 111.525 39.9482 111.83 40.1665 112.16C40.3899 112.485 40.5726 112.836 40.7249 113.202C40.8773 113.563 40.989 113.944 41.0702 114.331C41.1463 114.717 41.1819 115.109 41.1819 115.505Z" fill="white">
    <!-- ? Question mark dot <animate attributeName="fill-opacity" values="1;0.9;0.7;1" dur="2s" repeatCount="indefinite" /> -->
  </path>
</svg>
